<svg width="66" height="67" viewBox="0 0 66 67" fill="none" xmlns="http://www.w3.org/2000/svg">
<rect x="0.5" y="1.03223" width="65" height="65" rx="14.5" fill="white"/>
<rect x="0.5" y="1.03223" width="65" height="65" rx="14.5" stroke="#CBD5E1"/>
<g filter="url(#filter0_ii_4713_6847)">
<path d="M50.6001 16.4656H15.4001C13.9273 16.4656 12.7334 17.6595 12.7334 19.1322V43.6656C12.7334 45.1383 13.9273 46.3322 15.4001 46.3322H50.6001C52.0728 46.3322 53.2667 45.1383 53.2667 43.6656V19.1322C53.2667 17.6595 52.0728 16.4656 50.6001 16.4656Z" fill="#8E592D"/>
</g>
<g filter="url(#filter1_i_4713_6847)">
<path fill-rule="evenodd" clip-rule="evenodd" d="M27.2085 46.2996C27.2085 46.2996 29.1249 39.0449 32.8173 39.0449C36.5097 39.0449 38.426 46.3536 38.426 46.3536L27.2085 46.2996Z" fill="black" fill-opacity="0.01"/>
</g>
<g filter="url(#filter2_i_4713_6847)">
<path fill-rule="evenodd" clip-rule="evenodd" d="M43.6668 39.9323C46.6123 39.9323 49.0002 37.5445 49.0002 34.599C49.0002 31.6535 46.6123 29.2656 43.6668 29.2656C40.7213 29.2656 38.3335 31.6535 38.3335 34.599C38.3335 37.5445 40.7213 39.9323 43.6668 39.9323Z" fill="black" fill-opacity="0.01"/>
</g>
<g filter="url(#filter3_i_4713_6847)">
<path fill-rule="evenodd" clip-rule="evenodd" d="M22.3333 39.9323C25.2788 39.9323 27.6667 37.5445 27.6667 34.599C27.6667 31.6535 25.2788 29.2656 22.3333 29.2656C19.3878 29.2656 17 31.6535 17 34.599C17 37.5445 19.3878 39.9323 22.3333 39.9323Z" fill="black" fill-opacity="0.01"/>
</g>
<g filter="url(#filter4_ii_4713_6847)">
<path fill-rule="evenodd" clip-rule="evenodd" d="M53.268 19.6655C55.0345 19.6655 56.4665 21.0954 56.4665 22.8666V47.3977C56.4665 49.1657 55.0335 50.5989 53.2661 50.5989H41.6251C41.0349 50.5989 40.3465 50.169 40.0895 49.643L36.2759 41.8374C34.4666 38.1342 31.4375 38.0869 29.5078 41.7363L25.3209 49.6546C25.0451 50.1761 24.3473 50.5989 23.7587 50.5989H12.7382C10.9681 50.5989 9.5332 49.1689 9.5332 47.3977V22.8666C9.5332 21.0987 10.9699 19.6655 12.7317 19.6655H12.9678H53.268ZM22.3332 39.9322C25.2787 39.9322 27.6665 37.5444 27.6665 34.5989C27.6665 31.6534 25.2787 29.2655 22.3332 29.2655C19.3877 29.2655 16.9999 31.6534 16.9999 34.5989C16.9999 37.5444 19.3877 39.9322 22.3332 39.9322ZM43.6665 39.9322C46.6121 39.9322 48.9999 37.5444 48.9999 34.5989C48.9999 31.6534 46.6121 29.2655 43.6665 29.2655C40.721 29.2655 38.3332 31.6534 38.3332 34.5989C38.3332 37.5444 40.721 39.9322 43.6665 39.9322Z" fill="#D89E4E"/>
</g>
<defs>
<filter id="filter0_ii_4713_6847" x="12.7334" y="15.4656" width="40.5332" height="31.8667" filterUnits="userSpaceOnUse" color-interpolation-filters="sRGB">
<feFlood flood-opacity="0" result="BackgroundImageFix"/>
<feBlend mode="normal" in="SourceGraphic" in2="BackgroundImageFix" result="shape"/>
<feColorMatrix in="SourceAlpha" type="matrix" values="0 0 0 0 0 0 0 0 0 0 0 0 0 0 0 0 0 0 127 0" result="hardAlpha"/>
<feOffset dy="1"/>
<feGaussianBlur stdDeviation="2"/>
<feComposite in2="hardAlpha" operator="arithmetic" k2="-1" k3="1"/>
<feColorMatrix type="matrix" values="0 0 0 0 0.6 0 0 0 0 0.411765 0 0 0 0 0.258824 0 0 0 1 0"/>
<feBlend mode="normal" in2="shape" result="effect1_innerShadow_4713_6847"/>
<feColorMatrix in="SourceAlpha" type="matrix" values="0 0 0 0 0 0 0 0 0 0 0 0 0 0 0 0 0 0 127 0" result="hardAlpha"/>
<feOffset dy="-1"/>
<feGaussianBlur stdDeviation="2"/>
<feComposite in2="hardAlpha" operator="arithmetic" k2="-1" k3="1"/>
<feColorMatrix type="matrix" values="0 0 0 0 0.517647 0 0 0 0 0.317647 0 0 0 0 0.160784 0 0 0 1 0"/>
<feBlend mode="normal" in2="effect1_innerShadow_4713_6847" result="effect2_innerShadow_4713_6847"/>
</filter>
<filter id="filter1_i_4713_6847" x="27.2085" y="39.0449" width="11.2178" height="9.30859" filterUnits="userSpaceOnUse" color-interpolation-filters="sRGB">
<feFlood flood-opacity="0" result="BackgroundImageFix"/>
<feBlend mode="normal" in="SourceGraphic" in2="BackgroundImageFix" result="shape"/>
<feColorMatrix in="SourceAlpha" type="matrix" values="0 0 0 0 0 0 0 0 0 0 0 0 0 0 0 0 0 0 127 0" result="hardAlpha"/>
<feOffset dy="2"/>
<feGaussianBlur stdDeviation="1"/>
<feComposite in2="hardAlpha" operator="arithmetic" k2="-1" k3="1"/>
<feColorMatrix type="matrix" values="0 0 0 0 0 0 0 0 0 0 0 0 0 0 0 0 0 0 0.2 0"/>
<feBlend mode="normal" in2="shape" result="effect1_innerShadow_4713_6847"/>
</filter>
<filter id="filter2_i_4713_6847" x="38.3335" y="29.2656" width="10.6665" height="11.6667" filterUnits="userSpaceOnUse" color-interpolation-filters="sRGB">
<feFlood flood-opacity="0" result="BackgroundImageFix"/>
<feBlend mode="normal" in="SourceGraphic" in2="BackgroundImageFix" result="shape"/>
<feColorMatrix in="SourceAlpha" type="matrix" values="0 0 0 0 0 0 0 0 0 0 0 0 0 0 0 0 0 0 127 0" result="hardAlpha"/>
<feOffset dy="1"/>
<feGaussianBlur stdDeviation="2"/>
<feComposite in2="hardAlpha" operator="arithmetic" k2="-1" k3="1"/>
<feColorMatrix type="matrix" values="0 0 0 0 0 0 0 0 0 0 0 0 0 0 0 0 0 0 0.25 0"/>
<feBlend mode="normal" in2="shape" result="effect1_innerShadow_4713_6847"/>
</filter>
<filter id="filter3_i_4713_6847" x="17" y="29.2656" width="10.6665" height="11.6667" filterUnits="userSpaceOnUse" color-interpolation-filters="sRGB">
<feFlood flood-opacity="0" result="BackgroundImageFix"/>
<feBlend mode="normal" in="SourceGraphic" in2="BackgroundImageFix" result="shape"/>
<feColorMatrix in="SourceAlpha" type="matrix" values="0 0 0 0 0 0 0 0 0 0 0 0 0 0 0 0 0 0 127 0" result="hardAlpha"/>
<feOffset dy="1"/>
<feGaussianBlur stdDeviation="2"/>
<feComposite in2="hardAlpha" operator="arithmetic" k2="-1" k3="1"/>
<feColorMatrix type="matrix" values="0 0 0 0 0 0 0 0 0 0 0 0 0 0 0 0 0 0 0.25 0"/>
<feBlend mode="normal" in2="shape" result="effect1_innerShadow_4713_6847"/>
</filter>
<filter id="filter4_ii_4713_6847" x="9.5332" y="18.6655" width="46.9331" height="32.9333" filterUnits="userSpaceOnUse" color-interpolation-filters="sRGB">
<feFlood flood-opacity="0" result="BackgroundImageFix"/>
<feBlend mode="normal" in="SourceGraphic" in2="BackgroundImageFix" result="shape"/>
<feColorMatrix in="SourceAlpha" type="matrix" values="0 0 0 0 0 0 0 0 0 0 0 0 0 0 0 0 0 0 127 0" result="hardAlpha"/>
<feOffset dy="1"/>
<feGaussianBlur stdDeviation="2"/>
<feComposite in2="hardAlpha" operator="arithmetic" k2="-1" k3="1"/>
<feColorMatrix type="matrix" values="0 0 0 0 0.862745 0 0 0 0 0.654902 0 0 0 0 0.372549 0 0 0 1 0"/>
<feBlend mode="normal" in2="shape" result="effect1_innerShadow_4713_6847"/>
<feColorMatrix in="SourceAlpha" type="matrix" values="0 0 0 0 0 0 0 0 0 0 0 0 0 0 0 0 0 0 127 0" result="hardAlpha"/>
<feOffset dy="-1"/>
<feGaussianBlur stdDeviation="2"/>
<feComposite in2="hardAlpha" operator="arithmetic" k2="-1" k3="1"/>
<feColorMatrix type="matrix" values="0 0 0 0 0.811765 0 0 0 0 0.584314 0 0 0 0 0.270588 0 0 0 1 0"/>
<feBlend mode="normal" in2="effect1_innerShadow_4713_6847" result="effect2_innerShadow_4713_6847"/>
</filter>
</defs>
</svg>
