<svg width="66" height="67" viewBox="0 0 66 67" fill="none" xmlns="http://www.w3.org/2000/svg">
<rect x="0.5" y="1.03223" width="65" height="65" rx="14.5" fill="white"/>
<rect x="0.5" y="1.03223" width="65" height="65" rx="14.5" stroke="#CBD5E1"/>
<path d="M49.8001 12.9988H16.2001C14.1383 12.9988 12.4668 14.6702 12.4668 16.7321V50.3321C12.4668 52.394 14.1383 54.0654 16.2001 54.0654H49.8001C51.862 54.0654 53.5335 52.394 53.5335 50.3321V16.7321C53.5335 14.6702 51.862 12.9988 49.8001 12.9988Z" fill="#4C8BF5"/>
<mask id="mask0_4713_6841" style="mask-type:alpha" maskUnits="userSpaceOnUse" x="12" y="12" width="42" height="43">
<path d="M49.8001 12.9988H16.2001C14.1383 12.9988 12.4668 14.6702 12.4668 16.7321V50.3321C12.4668 52.394 14.1383 54.0654 16.2001 54.0654H49.8001C51.862 54.0654 53.5335 52.394 53.5335 50.3321V16.7321C53.5335 14.6702 51.862 12.9988 49.8001 12.9988Z" fill="white"/>
</mask>
<g mask="url(#mask0_4713_6841)">
<path fill-rule="evenodd" clip-rule="evenodd" d="M21.7871 45.3317L32.4666 55.3929H54.2165L54.6 32.7321L44.498 22.0112L43.9163 40.4392L30.9087 45.3317H21.7871Z" fill="url(#paint0_linear_4713_6841)"/>
<g filter="url(#filter0_ii_4713_6841)">
<path d="M49.8001 12.9988H16.2001C14.1383 12.9988 12.4668 14.6702 12.4668 16.7321V50.3321C12.4668 52.394 14.1383 54.0654 16.2001 54.0654H49.8001C51.862 54.0654 53.5335 52.394 53.5335 50.3321V16.7321C53.5335 14.6702 51.862 12.9988 49.8001 12.9988Z" fill="black" fill-opacity="0.01"/>
</g>
</g>
<mask id="mask1_4713_6841" style="mask-type:alpha" maskUnits="userSpaceOnUse" x="12" y="12" width="42" height="43">
<path d="M49.8001 12.9988H16.2001C14.1383 12.9988 12.4668 14.6702 12.4668 16.7321V50.3321C12.4668 52.394 14.1383 54.0654 16.2001 54.0654H49.8001C51.862 54.0654 53.5335 52.394 53.5335 50.3321V16.7321C53.5335 14.6702 51.862 12.9988 49.8001 12.9988Z" fill="white"/>
</mask>
<g mask="url(#mask1_4713_6841)">
<g filter="url(#filter1_d_4713_6841)">
<path fill-rule="evenodd" clip-rule="evenodd" d="M33.0001 49.7987C41.9839 49.7987 49.2667 42.5159 49.2667 33.532C49.2667 24.5482 41.9839 17.2654 33.0001 17.2654C24.0162 17.2654 16.7334 24.5482 16.7334 33.532C16.7334 42.5159 24.0162 49.7987 33.0001 49.7987Z" fill="#F5F5F5"/>
</g>
<path fill-rule="evenodd" clip-rule="evenodd" d="M30.2994 25.3308C28.1386 26.0536 26.2974 27.6346 25.2718 29.6353C24.914 30.3255 24.6565 31.0577 24.499 31.8179C24.1079 33.702 24.3798 35.712 25.267 37.4283C25.8442 38.5476 26.6742 39.5456 27.6759 40.3244C28.6251 41.0613 29.727 41.6116 30.9005 41.9148C32.3792 42.3018 33.9533 42.2925 35.4416 41.9614C36.7867 41.6582 38.0603 41.0286 39.0763 40.1145C40.1496 39.1492 40.9176 37.8807 41.323 36.5142C41.7666 35.0265 41.8239 33.4362 41.5472 31.9065H33.1996V35.2923H38.0365C37.8504 36.3743 37.1922 37.363 36.262 37.974C35.6753 38.361 35.0027 38.6082 34.3063 38.7295C33.6098 38.8461 32.8848 38.86 32.1883 38.7248C31.4776 38.5849 30.805 38.2957 30.2136 37.89C29.2691 37.2417 28.5488 36.295 28.1815 35.227C27.8047 34.1404 27.7999 32.9325 28.1815 31.8505C28.4486 31.0857 28.8875 30.3815 29.4694 29.8032C30.1849 29.085 31.1151 28.572 32.1216 28.3621C32.9802 28.1849 33.8865 28.2175 34.7261 28.4647C35.4415 28.6746 36.0998 29.0617 36.6389 29.5654C37.1826 29.0337 37.7264 28.502 38.2702 27.9704C38.5564 27.6859 38.8569 27.4108 39.1336 27.1169C38.3083 26.3708 37.3353 25.7691 36.2763 25.3867C34.3683 24.6965 32.2217 24.6825 30.2994 25.3308Z" fill="#4C8BF5"/>
<path fill-rule="evenodd" clip-rule="evenodd" d="M49.2668 19.3987C50.445 19.3987 51.4001 18.4436 51.4001 17.2654C51.4001 16.0872 50.445 15.1321 49.2668 15.1321C48.0886 15.1321 47.1334 16.0872 47.1334 17.2654C47.1334 18.4436 48.0886 19.3987 49.2668 19.3987ZM16.7334 19.3987C17.9116 19.3987 18.8668 18.4436 18.8668 17.2654C18.8668 16.0872 17.9116 15.1321 16.7334 15.1321C15.5552 15.1321 14.6001 16.0872 14.6001 17.2654C14.6001 18.4436 15.5552 19.3987 16.7334 19.3987ZM49.2668 51.9321C50.445 51.9321 51.4001 50.9769 51.4001 49.7987C51.4001 48.6206 50.445 47.6654 49.2668 47.6654C48.0886 47.6654 47.1334 48.6206 47.1334 49.7987C47.1334 50.9769 48.0886 51.9321 49.2668 51.9321ZM16.7334 51.9321C17.9116 51.9321 18.8668 50.9769 18.8668 49.7987C18.8668 48.6206 17.9116 47.6654 16.7334 47.6654C15.5552 47.6654 14.6001 48.6206 14.6001 49.7987C14.6001 50.9769 15.5552 51.9321 16.7334 51.9321Z" fill="#A4C4FA"/>
</g>
<defs>
<filter id="filter0_ii_4713_6841" x="12.4668" y="11.9988" width="41.0669" height="43.0667" filterUnits="userSpaceOnUse" color-interpolation-filters="sRGB">
<feFlood flood-opacity="0" result="BackgroundImageFix"/>
<feBlend mode="normal" in="SourceGraphic" in2="BackgroundImageFix" result="shape"/>
<feColorMatrix in="SourceAlpha" type="matrix" values="0 0 0 0 0 0 0 0 0 0 0 0 0 0 0 0 0 0 127 0" result="hardAlpha"/>
<feOffset dy="1"/>
<feGaussianBlur stdDeviation="2"/>
<feComposite in2="hardAlpha" operator="arithmetic" k2="-1" k3="1"/>
<feColorMatrix type="matrix" values="0 0 0 0 0.639216 0 0 0 0 0.768627 0 0 0 0 0.976471 0 0 0 0.5 0"/>
<feBlend mode="normal" in2="shape" result="effect1_innerShadow_4713_6841"/>
<feColorMatrix in="SourceAlpha" type="matrix" values="0 0 0 0 0 0 0 0 0 0 0 0 0 0 0 0 0 0 127 0" result="hardAlpha"/>
<feOffset dy="-1"/>
<feGaussianBlur stdDeviation="2"/>
<feComposite in2="hardAlpha" operator="arithmetic" k2="-1" k3="1"/>
<feColorMatrix type="matrix" values="0 0 0 0 0.639216 0 0 0 0 0.768627 0 0 0 0 0.976471 0 0 0 0.5 0"/>
<feBlend mode="normal" in2="effect1_innerShadow_4713_6841" result="effect2_innerShadow_4713_6841"/>
</filter>
<filter id="filter1_d_4713_6841" x="14.7334" y="15.2654" width="40.5332" height="40.5334" filterUnits="userSpaceOnUse" color-interpolation-filters="sRGB">
<feFlood flood-opacity="0" result="BackgroundImageFix"/>
<feColorMatrix in="SourceAlpha" type="matrix" values="0 0 0 0 0 0 0 0 0 0 0 0 0 0 0 0 0 0 127 0" result="hardAlpha"/>
<feOffset dx="2" dy="2"/>
<feGaussianBlur stdDeviation="2"/>
<feColorMatrix type="matrix" values="0 0 0 0 0 0 0 0 0 0 0 0 0 0 0 0 0 0 0.1 0"/>
<feBlend mode="normal" in2="BackgroundImageFix" result="effect1_dropShadow_4713_6841"/>
<feBlend mode="normal" in="SourceGraphic" in2="effect1_dropShadow_4713_6841" result="shape"/>
</filter>
<linearGradient id="paint0_linear_4713_6841" x1="23.4" y1="46.7962" x2="46.2299" y2="69.9236" gradientUnits="userSpaceOnUse">
<stop stop-color="#3C70C8"/>
<stop offset="1" stop-color="#4889F4" stop-opacity="0.01"/>
</linearGradient>
</defs>
</svg>
