<svg width="66" height="67" viewBox="0 0 66 67" fill="none" xmlns="http://www.w3.org/2000/svg">
<rect x="0.5" y="1.03223" width="65" height="65" rx="14.5" fill="white"/>
<rect x="0.5" y="1.03223" width="65" height="65" rx="14.5" stroke="#CBD5E1"/>
<path d="M53.7999 13.2656H12.1999C10.7271 13.2656 9.5332 14.4595 9.5332 15.9323V51.1323C9.5332 52.605 10.7271 53.799 12.1999 53.799H53.7999C55.2726 53.799 56.4665 52.605 56.4665 51.1323V15.9323C56.4665 14.4595 55.2726 13.2656 53.7999 13.2656Z" fill="#F4B401"/>
<path d="M52.1998 16.999H13.7998V50.0657H52.1998V16.999Z" fill="#1BA261"/>
<path fill-rule="evenodd" clip-rule="evenodd" d="M41.2681 36.2004C38.4464 36.2004 36.112 37.2437 35.7237 38.6008H35.667V41.008H46.8692V38.6008H46.8125C46.4243 37.2437 44.0899 36.2004 41.2681 36.2004ZM41.2681 34.6C42.5939 34.6 43.6686 33.5253 43.6686 32.1996C43.6686 30.8738 42.5939 29.7991 41.2681 29.7991C39.9424 29.7991 38.8676 30.8738 38.8676 32.1996C38.8676 33.5253 39.9424 34.6 41.2681 34.6Z" fill="white" fill-opacity="0.395777"/>
<path fill-rule="evenodd" clip-rule="evenodd" d="M24.7344 36.2004C21.9127 36.2004 19.5783 37.2437 19.19 38.6008H19.1333V41.008H30.3355V38.6008H30.2788C29.8906 37.2437 27.5562 36.2004 24.7344 36.2004ZM24.7344 34.6C26.0602 34.6 27.1349 33.5253 27.1349 32.1996C27.1349 30.8738 26.0602 29.7991 24.7344 29.7991C23.4087 29.7991 22.3339 30.8738 22.3339 32.1996C22.3339 33.5253 23.4087 34.6 24.7344 34.6Z" fill="white" fill-opacity="0.395777"/>
<path fill-rule="evenodd" clip-rule="evenodd" d="M32.9999 34.599C29.2383 34.599 26.1264 35.9898 25.6088 37.799H25.5332V41.008H40.4665V37.799H40.3909C39.8734 35.9898 36.7614 34.599 32.9999 34.599ZM32.9999 32.4657C34.7672 32.4657 36.1999 31.033 36.1999 29.2657C36.1999 27.4984 34.7672 26.0657 32.9999 26.0657C31.2326 26.0657 29.7999 27.4984 29.7999 29.2657C29.7999 31.033 31.2326 32.4657 32.9999 32.4657Z" fill="#F7F7F7"/>
<path fill-rule="evenodd" clip-rule="evenodd" d="M37.2666 49.5322L41.5333 53.7989H51.1333L46.8666 49.5322H37.2666Z" fill="url(#paint0_linear_4713_6839)" fill-opacity="0.6"/>
<g filter="url(#filter0_d_4713_6839)">
<path d="M46.8666 47.3989H37.2666V49.5323H46.8666V47.3989Z" fill="#F1F1F1"/>
</g>
<defs>
<filter id="filter0_d_4713_6839" x="33.2666" y="42.3989" width="17.6001" height="10.1333" filterUnits="userSpaceOnUse" color-interpolation-filters="sRGB">
<feFlood flood-opacity="0" result="BackgroundImageFix"/>
<feColorMatrix in="SourceAlpha" type="matrix" values="0 0 0 0 0 0 0 0 0 0 0 0 0 0 0 0 0 0 127 0" result="hardAlpha"/>
<feOffset dy="-1"/>
<feGaussianBlur stdDeviation="2"/>
<feColorMatrix type="matrix" values="0 0 0 0 0.0784314 0 0 0 0 0.592157 0 0 0 0 0.34902 0 0 0 1 0"/>
<feBlend mode="normal" in2="BackgroundImageFix" result="effect1_dropShadow_4713_6839"/>
<feBlend mode="normal" in="SourceGraphic" in2="effect1_dropShadow_4713_6839" result="shape"/>
</filter>
<linearGradient id="paint0_linear_4713_6839" x1="32.5832" y1="46.7693" x2="32.5832" y2="54.2694" gradientUnits="userSpaceOnUse">
<stop stop-color="#C26003"/>
<stop offset="1" stop-color="#F4B401" stop-opacity="0.513842"/>
</linearGradient>
</defs>
</svg>
