<svg width="66" height="67" viewBox="0 0 66 67" fill="none" xmlns="http://www.w3.org/2000/svg">
<rect x="0.5" y="1.03223" width="65" height="65" rx="14.5" fill="white"/>
<rect x="0.5" y="1.03223" width="65" height="65" rx="14.5" stroke="#CBD5E1"/>
<path fill-rule="evenodd" clip-rule="evenodd" d="M12.7308 20.5441C11.5565 20.5441 10.6001 21.5156 10.6001 22.7139V49.7625C10.6001 50.9585 11.554 51.9323 12.7308 51.9323H53.2694C54.4438 51.9323 55.4001 50.9609 55.4001 49.7625V22.7139C55.4001 21.5179 54.446 20.5441 53.2694 20.5441H45.3493C44.9924 20.3257 44.635 20.0681 44.2928 19.7644C42.3389 18.0305 42.0467 17.0111 42.0467 17.0111C41.6018 15.9735 40.286 15.1323 39.1102 15.1323H33.0001V17.8382V15.1323H26.89C25.7142 15.1323 24.3984 15.9735 23.9535 17.0111C23.9535 17.0111 23.6613 18.0305 21.7074 19.7644C21.3652 20.0681 21.0078 20.3257 20.6509 20.5441H12.7308Z" fill="url(#paint0_linear_4713_6842)"/>
<path fill-rule="evenodd" clip-rule="evenodd" d="M42.0467 17.0111C42.0467 17.0111 42.3389 18.0305 44.2928 19.7644C44.635 20.0681 44.9924 20.3257 45.3493 20.5441H53.2694C54.446 20.5441 55.4001 21.5179 55.4001 22.7139V49.7625C55.4001 50.9609 54.4438 51.9323 53.2694 51.9323H12.7308C11.554 51.9323 10.6001 50.9585 10.6001 49.7625V22.7139C10.6001 21.5156 11.5565 20.5441 12.7308 20.5441H20.6509C21.0078 20.3257 21.3652 20.0681 21.7074 19.7644C23.6613 18.0305 23.9535 17.0111 23.9535 17.0111C24.3984 15.9735 25.7142 15.1323 26.89 15.1323H39.1102C40.286 15.1323 41.6018 15.9735 42.0467 17.0111ZM39.1102 14.1323C39.9243 14.1323 40.7315 14.4181 41.3914 14.8402C42.0491 15.261 42.6466 15.8725 42.9657 16.6171L42.9906 16.6749L43.001 16.7112C43.005 16.7213 43.0133 16.7412 43.0271 16.7704C43.0625 16.8454 43.1348 16.9833 43.2667 17.1793C43.5305 17.5714 44.0335 18.1974 44.9566 19.0165C45.1779 19.2129 45.4079 19.388 45.6414 19.5441H53.2694C55.016 19.5441 56.4001 20.9835 56.4001 22.7139V49.7625C56.4001 51.4966 55.0125 52.9323 53.2694 52.9323H12.7308C10.9839 52.9323 9.6001 51.4928 9.6001 49.7625V22.7139C9.6001 20.9798 10.9879 19.5441 12.7308 19.5441H20.3588C20.5923 19.388 20.8223 19.2129 21.0436 19.0165C21.9666 18.1974 22.4697 17.5714 22.7335 17.1793C22.8653 16.9833 22.9377 16.8454 22.9731 16.7704C22.9869 16.7412 22.9952 16.7213 22.9992 16.7112L23.0096 16.6749L23.0344 16.6171C23.3536 15.8725 23.951 15.261 24.6088 14.8402C25.2687 14.4181 26.0759 14.1323 26.89 14.1323H39.1102Z" fill="#CBD5E1"/>
<g filter="url(#filter0_ii_4713_6842)">
<path d="M14.8667 19.1323C14.8667 18.6905 15.2249 18.3323 15.6667 18.3323H17.8C18.2418 18.3323 18.6 18.6905 18.6 19.1323V20.4656H14.8667V19.1323Z" fill="url(#paint1_linear_4713_6842)"/>
</g>
<g filter="url(#filter1_d_4713_6842)">
<path fill-rule="evenodd" clip-rule="evenodd" d="M43.1331 28.4656C43.7222 28.4656 44.1997 27.9881 44.1997 27.3989C44.1997 26.8098 43.7222 26.3323 43.1331 26.3323C42.544 26.3323 42.0664 26.8098 42.0664 27.3989C42.0664 27.9881 42.544 28.4656 43.1331 28.4656Z" fill="url(#paint2_linear_4713_6842)"/>
</g>
<g filter="url(#filter2_d_4713_6842)">
<path d="M55.4001 23.6655H10.6001V24.1989H55.4001V23.6655Z" fill="white"/>
</g>
<g filter="url(#filter3_d_4713_6842)">
<path d="M55.4001 47.6655H10.6001V48.1989H55.4001V47.6655Z" fill="white"/>
</g>
<g filter="url(#filter4_d_4713_6842)">
<path fill-rule="evenodd" clip-rule="evenodd" d="M42.9331 35.9324C42.9331 41.4184 38.4858 45.8657 32.9997 45.8657C27.5137 45.8657 23.0664 41.4184 23.0664 35.9324C23.0664 30.4463 27.5137 25.999 32.9997 25.999C38.4858 25.999 42.9331 30.4463 42.9331 35.9324ZM32.9997 44.8657C37.9335 44.8657 41.9331 40.8661 41.9331 35.9324C41.9331 30.9986 37.9335 26.999 32.9997 26.999C28.066 26.999 24.0664 30.9986 24.0664 35.9324C24.0664 40.8661 28.066 44.8657 32.9997 44.8657Z" fill="white"/>
</g>
<defs>
<filter id="filter0_ii_4713_6842" x="14.8667" y="17.3323" width="3.7334" height="4.1333" filterUnits="userSpaceOnUse" color-interpolation-filters="sRGB">
<feFlood flood-opacity="0" result="BackgroundImageFix"/>
<feBlend mode="normal" in="SourceGraphic" in2="BackgroundImageFix" result="shape"/>
<feColorMatrix in="SourceAlpha" type="matrix" values="0 0 0 0 0 0 0 0 0 0 0 0 0 0 0 0 0 0 127 0" result="hardAlpha"/>
<feOffset dy="1"/>
<feGaussianBlur stdDeviation="1"/>
<feComposite in2="hardAlpha" operator="arithmetic" k2="-1" k3="1"/>
<feColorMatrix type="matrix" values="0 0 0 0 0 0 0 0 0 0 0 0 0 0 0 0 0 0 0.694265 0"/>
<feBlend mode="normal" in2="shape" result="effect1_innerShadow_4713_6842"/>
<feColorMatrix in="SourceAlpha" type="matrix" values="0 0 0 0 0 0 0 0 0 0 0 0 0 0 0 0 0 0 127 0" result="hardAlpha"/>
<feOffset dy="-1"/>
<feGaussianBlur stdDeviation="2"/>
<feComposite in2="hardAlpha" operator="arithmetic" k2="-1" k3="1"/>
<feColorMatrix type="matrix" values="0 0 0 0 0.8 0 0 0 0 0.807843 0 0 0 0 0.815686 0 0 0 1 0"/>
<feBlend mode="normal" in2="effect1_innerShadow_4713_6842" result="effect2_innerShadow_4713_6842"/>
</filter>
<filter id="filter1_d_4713_6842" x="40.0664" y="25.3323" width="6.1333" height="6.1333" filterUnits="userSpaceOnUse" color-interpolation-filters="sRGB">
<feFlood flood-opacity="0" result="BackgroundImageFix"/>
<feColorMatrix in="SourceAlpha" type="matrix" values="0 0 0 0 0 0 0 0 0 0 0 0 0 0 0 0 0 0 127 0" result="hardAlpha"/>
<feOffset dy="1"/>
<feGaussianBlur stdDeviation="1"/>
<feColorMatrix type="matrix" values="0 0 0 0 0 0 0 0 0 0 0 0 0 0 0 0 0 0 0.578182 0"/>
<feBlend mode="normal" in2="BackgroundImageFix" result="effect1_dropShadow_4713_6842"/>
<feBlend mode="normal" in="SourceGraphic" in2="effect1_dropShadow_4713_6842" result="shape"/>
</filter>
<filter id="filter2_d_4713_6842" x="9.6001" y="23.6655" width="46.7998" height="2.53345" filterUnits="userSpaceOnUse" color-interpolation-filters="sRGB">
<feFlood flood-opacity="0" result="BackgroundImageFix"/>
<feColorMatrix in="SourceAlpha" type="matrix" values="0 0 0 0 0 0 0 0 0 0 0 0 0 0 0 0 0 0 127 0" result="hardAlpha"/>
<feOffset dy="1"/>
<feGaussianBlur stdDeviation="0.5"/>
<feColorMatrix type="matrix" values="0 0 0 0 0 0 0 0 0 0 0 0 0 0 0 0 0 0 0.407609 0"/>
<feBlend mode="normal" in2="BackgroundImageFix" result="effect1_dropShadow_4713_6842"/>
<feBlend mode="normal" in="SourceGraphic" in2="effect1_dropShadow_4713_6842" result="shape"/>
</filter>
<filter id="filter3_d_4713_6842" x="9.6001" y="47.6655" width="46.7998" height="2.53345" filterUnits="userSpaceOnUse" color-interpolation-filters="sRGB">
<feFlood flood-opacity="0" result="BackgroundImageFix"/>
<feColorMatrix in="SourceAlpha" type="matrix" values="0 0 0 0 0 0 0 0 0 0 0 0 0 0 0 0 0 0 127 0" result="hardAlpha"/>
<feOffset dy="1"/>
<feGaussianBlur stdDeviation="0.5"/>
<feColorMatrix type="matrix" values="0 0 0 0 0 0 0 0 0 0 0 0 0 0 0 0 0 0 0.407609 0"/>
<feBlend mode="normal" in2="BackgroundImageFix" result="effect1_dropShadow_4713_6842"/>
<feBlend mode="normal" in="SourceGraphic" in2="effect1_dropShadow_4713_6842" result="shape"/>
</filter>
<filter id="filter4_d_4713_6842" x="22.5664" y="25.999" width="20.8667" height="21.3667" filterUnits="userSpaceOnUse" color-interpolation-filters="sRGB">
<feFlood flood-opacity="0" result="BackgroundImageFix"/>
<feColorMatrix in="SourceAlpha" type="matrix" values="0 0 0 0 0 0 0 0 0 0 0 0 0 0 0 0 0 0 127 0" result="hardAlpha"/>
<feOffset dy="1"/>
<feGaussianBlur stdDeviation="0.25"/>
<feColorMatrix type="matrix" values="0 0 0 0 0 0 0 0 0 0 0 0 0 0 0 0 0 0 0.579031 0"/>
<feBlend mode="normal" in2="BackgroundImageFix" result="effect1_dropShadow_4713_6842"/>
<feBlend mode="normal" in="SourceGraphic" in2="effect1_dropShadow_4713_6842" result="shape"/>
</filter>
<linearGradient id="paint0_linear_4713_6842" x1="14.1364" y1="12.4633" x2="14.1364" y2="43.4536" gradientUnits="userSpaceOnUse">
<stop stop-color="#494949"/>
<stop offset="1" stop-color="#2B2B2B"/>
</linearGradient>
<linearGradient id="paint1_linear_4713_6842" x1="14.8667" y1="18.3323" x2="14.8667" y2="20.4656" gradientUnits="userSpaceOnUse">
<stop stop-color="#494949"/>
<stop offset="1" stop-color="#2B2B2B"/>
</linearGradient>
<linearGradient id="paint2_linear_4713_6842" x1="41.5837" y1="25.3668" x2="41.5837" y2="28.4656" gradientUnits="userSpaceOnUse">
<stop stop-color="#E9CD78"/>
<stop offset="1" stop-color="#E7B61D"/>
</linearGradient>
</defs>
</svg>
