<svg width="66" height="67" viewBox="0 0 66 67" fill="none" xmlns="http://www.w3.org/2000/svg">
<rect x="0.5" y="1.03223" width="65" height="65" rx="14.5" fill="white"/>
<rect x="0.5" y="1.03223" width="65" height="65" rx="14.5" stroke="#CBD5E1"/>
<g filter="url(#filter0_i_4713_6844)">
<path d="M48.4727 13.2681H17.5394C15.772 13.2681 14.3394 14.7008 14.3394 16.4681V21.2681C14.3394 23.0354 15.772 24.4681 17.5394 24.4681H48.4727C50.24 24.4681 51.6727 23.0354 51.6727 21.2681V16.4681C51.6727 14.7008 50.24 13.2681 48.4727 13.2681Z" fill="#C4C4C4"/>
</g>
<path fill-rule="evenodd" clip-rule="evenodd" d="M21.7729 17.6298L25.7752 21.8093H29.954L23.9938 15.3213L21.7729 17.6298Z" fill="url(#paint0_linear_4713_6844)"/>
<g filter="url(#filter1_d_4713_6844)">
<path fill-rule="evenodd" clip-rule="evenodd" d="M22.8725 18.0682C23.7561 18.0682 24.4725 17.3518 24.4725 16.4682C24.4725 15.5845 23.7561 14.8682 22.8725 14.8682C21.9888 14.8682 21.2725 15.5845 21.2725 16.4682C21.2725 17.3518 21.9888 18.0682 22.8725 18.0682Z" fill="#EFEFEF"/>
</g>
<path fill-rule="evenodd" clip-rule="evenodd" d="M42.0396 17.6298L46.0418 21.8093H50.2206L44.2603 15.3213L42.0396 17.6298Z" fill="url(#paint1_linear_4713_6844)"/>
<g filter="url(#filter2_d_4713_6844)">
<path fill-rule="evenodd" clip-rule="evenodd" d="M43.1391 18.0682C44.0227 18.0682 44.7391 17.3518 44.7391 16.4682C44.7391 15.5845 44.0227 14.8682 43.1391 14.8682C42.2554 14.8682 41.5391 15.5845 41.5391 16.4682C41.5391 17.3518 42.2554 18.0682 43.1391 18.0682Z" fill="#EFEFEF"/>
</g>
<g filter="url(#filter3_i_4713_6844)">
<path fill-rule="evenodd" clip-rule="evenodd" d="M53.8706 22.8681C54.1405 21.101 52.8907 19.668 51.0786 19.668H14.9215C13.1108 19.668 11.8593 21.1007 12.1294 22.8681L14.2488 36.7329L13.1011 50.5963C12.831 52.3636 15.1874 53.7964 16.9981 53.7964H49.1893C51.0014 53.7964 52.8174 52.3633 52.5474 50.5963L51.7513 36.7333L53.8706 22.8681Z" fill="#4687F4"/>
</g>
<g filter="url(#filter4_i_4713_6844)">
<path fill-rule="evenodd" clip-rule="evenodd" d="M14.9215 19.668H51.0786C52.8907 19.668 54.1405 21.101 53.8706 22.8681L51.751 36.7346H14.249L12.1294 22.8681C11.8593 21.1007 13.1108 19.668 14.9215 19.668Z" fill="#3866D0"/>
</g>
<path fill-rule="evenodd" clip-rule="evenodd" d="M49.19 53.7966C51.0021 53.7966 52.8182 52.3635 52.5481 50.5965L51.7452 36.9968H14.2305L30.4301 53.7966H49.19Z" fill="url(#paint2_linear_4713_6844)"/>
<path fill-rule="evenodd" clip-rule="evenodd" d="M35.597 30.1216L42.5559 27.4619V45.8611H40.4078V30.4352L35.597 32.2263V30.1216ZM25.1833 35.5492H27.2654C28.3226 35.5492 29.071 35.2812 29.5108 34.745C29.9507 34.2088 30.1706 33.462 30.1706 32.5043C30.1706 31.4811 29.9204 30.7035 29.42 30.1715C28.9197 29.6394 28.1813 29.3734 27.2048 29.3734C26.2768 29.3734 25.5323 29.6496 24.9715 30.2022C24.4106 30.7547 24.1302 31.4893 24.1302 32.4061H21.8423L21.8181 32.3324C21.7778 30.9818 22.2599 29.8338 23.2646 28.8884C24.2694 27.943 25.5828 27.4703 27.2048 27.4703C28.835 27.4703 30.1342 27.9103 31.1027 28.7902C32.0711 29.6701 32.5552 30.9245 32.5552 32.5534C32.5552 33.2901 32.3354 34.0247 31.8955 34.7573C31.4557 35.4899 30.796 36.0485 29.9164 36.4332C30.9735 36.7852 31.722 37.3377 32.1619 38.0908C32.6016 38.8438 32.8216 39.6869 32.8216 40.62C32.8216 42.2489 32.295 43.5299 31.2419 44.463C30.1887 45.3962 28.843 45.8627 27.2048 45.8627C25.5989 45.8627 24.2694 45.4228 23.2162 44.5428C22.1631 43.6629 21.6567 42.4699 21.6971 40.9638L21.7334 40.8901H24.0091C24.0091 41.8315 24.2936 42.5804 24.8625 43.137C25.4315 43.6936 26.2122 43.9719 27.2048 43.9719C28.2136 43.9719 29.0045 43.6936 29.5774 43.137C30.1504 42.5804 30.4369 41.7578 30.4369 40.6691C30.4369 39.5641 30.1827 38.7496 29.6743 38.2258C29.1659 37.702 28.3629 37.44 27.2654 37.44H25.1833V35.5492Z" fill="#EEEEEE"/>
<path fill-rule="evenodd" clip-rule="evenodd" d="M30.6538 36.7362H25.1829V35.5492H27.265C28.3222 35.5492 29.0707 35.2812 29.5105 34.745C29.9503 34.2088 30.1702 33.462 30.1702 32.5043C30.1702 31.4811 29.9201 30.7035 29.4197 30.1715C28.9194 29.6394 28.181 29.3734 27.2045 29.3734C26.2764 29.3734 25.532 29.6496 24.9711 30.2022C24.4102 30.7547 24.1298 31.4893 24.1298 32.4061H21.842L21.8178 32.3324C21.7774 30.9818 22.2596 29.8338 23.2643 28.8884C24.269 27.943 25.5824 27.4703 27.2045 27.4703C28.8346 27.4703 30.1339 27.9103 31.1023 28.7902C32.0707 29.6701 32.5549 30.9245 32.5549 32.5534C32.5549 33.2901 32.335 34.0247 31.8952 34.7573C31.4554 35.4899 30.7956 36.0485 29.916 36.4332C30.1814 36.5216 30.4274 36.6226 30.6538 36.7362ZM42.5556 36.727V27.4619L35.5967 30.1216V32.2263L40.4075 30.4352V36.727H42.5556Z" fill="#D4D4D4"/>
<g filter="url(#filter5_i_4713_6844)">
<path fill-rule="evenodd" clip-rule="evenodd" d="M16.9988 53.7966H49.19C51.0022 53.7966 52.8182 52.3636 52.5481 50.5965L51.7518 36.73H14.2497L13.1019 50.5965C12.8317 52.364 15.1881 53.7966 16.9988 53.7966Z" fill="black" fill-opacity="0.01"/>
</g>
<defs>
<filter id="filter0_i_4713_6844" x="14.3394" y="13.2681" width="37.3335" height="12.2" filterUnits="userSpaceOnUse" color-interpolation-filters="sRGB">
<feFlood flood-opacity="0" result="BackgroundImageFix"/>
<feBlend mode="normal" in="SourceGraphic" in2="BackgroundImageFix" result="shape"/>
<feColorMatrix in="SourceAlpha" type="matrix" values="0 0 0 0 0 0 0 0 0 0 0 0 0 0 0 0 0 0 127 0" result="hardAlpha"/>
<feOffset dy="1"/>
<feGaussianBlur stdDeviation="2"/>
<feComposite in2="hardAlpha" operator="arithmetic" k2="-1" k3="1"/>
<feColorMatrix type="matrix" values="0 0 0 0 0.792157 0 0 0 0 0.792157 0 0 0 0 0.792157 0 0 0 1 0"/>
<feBlend mode="normal" in2="shape" result="effect1_innerShadow_4713_6844"/>
</filter>
<filter id="filter1_d_4713_6844" x="20.7725" y="14.8682" width="5.2002" height="5.19995" filterUnits="userSpaceOnUse" color-interpolation-filters="sRGB">
<feFlood flood-opacity="0" result="BackgroundImageFix"/>
<feColorMatrix in="SourceAlpha" type="matrix" values="0 0 0 0 0 0 0 0 0 0 0 0 0 0 0 0 0 0 127 0" result="hardAlpha"/>
<feOffset dx="0.5" dy="1"/>
<feGaussianBlur stdDeviation="0.5"/>
<feColorMatrix type="matrix" values="0 0 0 0 0 0 0 0 0 0 0 0 0 0 0 0 0 0 0.1 0"/>
<feBlend mode="normal" in2="BackgroundImageFix" result="effect1_dropShadow_4713_6844"/>
<feBlend mode="normal" in="SourceGraphic" in2="effect1_dropShadow_4713_6844" result="shape"/>
</filter>
<filter id="filter2_d_4713_6844" x="41.0391" y="14.8682" width="5.2002" height="5.19995" filterUnits="userSpaceOnUse" color-interpolation-filters="sRGB">
<feFlood flood-opacity="0" result="BackgroundImageFix"/>
<feColorMatrix in="SourceAlpha" type="matrix" values="0 0 0 0 0 0 0 0 0 0 0 0 0 0 0 0 0 0 127 0" result="hardAlpha"/>
<feOffset dx="0.5" dy="1"/>
<feGaussianBlur stdDeviation="0.5"/>
<feColorMatrix type="matrix" values="0 0 0 0 0 0 0 0 0 0 0 0 0 0 0 0 0 0 0.1 0"/>
<feBlend mode="normal" in2="BackgroundImageFix" result="effect1_dropShadow_4713_6844"/>
<feBlend mode="normal" in="SourceGraphic" in2="effect1_dropShadow_4713_6844" result="shape"/>
</filter>
<filter id="filter3_i_4713_6844" x="12.0928" y="18.668" width="41.8145" height="35.1284" filterUnits="userSpaceOnUse" color-interpolation-filters="sRGB">
<feFlood flood-opacity="0" result="BackgroundImageFix"/>
<feBlend mode="normal" in="SourceGraphic" in2="BackgroundImageFix" result="shape"/>
<feColorMatrix in="SourceAlpha" type="matrix" values="0 0 0 0 0 0 0 0 0 0 0 0 0 0 0 0 0 0 127 0" result="hardAlpha"/>
<feOffset dy="-1"/>
<feGaussianBlur stdDeviation="2"/>
<feComposite in2="hardAlpha" operator="arithmetic" k2="-1" k3="1"/>
<feColorMatrix type="matrix" values="0 0 0 0 0.258824 0 0 0 0 0.494118 0 0 0 0 0.913725 0 0 0 1 0"/>
<feBlend mode="normal" in2="shape" result="effect1_innerShadow_4713_6844"/>
</filter>
<filter id="filter4_i_4713_6844" x="12.0928" y="19.668" width="41.8145" height="18.0667" filterUnits="userSpaceOnUse" color-interpolation-filters="sRGB">
<feFlood flood-opacity="0" result="BackgroundImageFix"/>
<feBlend mode="normal" in="SourceGraphic" in2="BackgroundImageFix" result="shape"/>
<feColorMatrix in="SourceAlpha" type="matrix" values="0 0 0 0 0 0 0 0 0 0 0 0 0 0 0 0 0 0 127 0" result="hardAlpha"/>
<feOffset dy="1"/>
<feGaussianBlur stdDeviation="2"/>
<feComposite in2="hardAlpha" operator="arithmetic" k2="-1" k3="1"/>
<feColorMatrix type="matrix" values="0 0 0 0 0.282353 0 0 0 0 0.45098 0 0 0 0 0.831373 0 0 0 1 0"/>
<feBlend mode="normal" in2="shape" result="effect1_innerShadow_4713_6844"/>
</filter>
<filter id="filter5_i_4713_6844" x="13.0806" y="36.73" width="39.4941" height="17.5667" filterUnits="userSpaceOnUse" color-interpolation-filters="sRGB">
<feFlood flood-opacity="0" result="BackgroundImageFix"/>
<feBlend mode="normal" in="SourceGraphic" in2="BackgroundImageFix" result="shape"/>
<feColorMatrix in="SourceAlpha" type="matrix" values="0 0 0 0 0 0 0 0 0 0 0 0 0 0 0 0 0 0 127 0" result="hardAlpha"/>
<feOffset dy="0.5"/>
<feGaussianBlur stdDeviation="2"/>
<feComposite in2="hardAlpha" operator="arithmetic" k2="-1" k3="1"/>
<feColorMatrix type="matrix" values="0 0 0 0 0.588542 0 0 0 0 0.588542 0 0 0 0 0.588542 0 0 0 0.2 0"/>
<feBlend mode="normal" in2="shape" result="effect1_innerShadow_4713_6844"/>
</filter>
<linearGradient id="paint0_linear_4713_6844" x1="19.8932" y1="18.3786" x2="23.0545" y2="24.2565" gradientUnits="userSpaceOnUse">
<stop stop-color="#B0B0B0"/>
<stop offset="1" stop-color="#D8D8D8" stop-opacity="0.01"/>
</linearGradient>
<linearGradient id="paint1_linear_4713_6844" x1="40.1598" y1="18.3786" x2="43.3212" y2="24.2565" gradientUnits="userSpaceOnUse">
<stop stop-color="#B0B0B0"/>
<stop offset="1" stop-color="#D8D8D8" stop-opacity="0.01"/>
</linearGradient>
<linearGradient id="paint2_linear_4713_6844" x1="19.6484" y1="38.9387" x2="21.4395" y2="54.8661" gradientUnits="userSpaceOnUse">
<stop stop-color="#3C78DD"/>
<stop offset="1" stop-color="#4688F4" stop-opacity="0.01"/>
</linearGradient>
</defs>
</svg>
