<svg width="66" height="67" viewBox="0 0 66 67" fill="none" xmlns="http://www.w3.org/2000/svg">
<rect x="0.5" y="1.03223" width="65" height="65" rx="14.5" fill="white"/>
<rect x="0.5" y="1.03223" width="65" height="65" rx="14.5" stroke="#CBD5E1"/>
<path fill-rule="evenodd" clip-rule="evenodd" d="M33.0002 60.1988C47.7277 60.1988 59.6668 48.2597 59.6668 33.5321C59.6668 18.8046 47.7277 6.86548 33.0002 6.86548C18.2726 6.86548 6.3335 18.8046 6.3335 33.5321C6.3335 48.2597 18.2726 60.1988 33.0002 60.1988Z" fill="url(#paint0_linear_4713_6845)"/>
<path fill-rule="evenodd" clip-rule="evenodd" d="M15.4004 46.5989L20.4671 49.7989L26.8671 38.8656L36.2004 44.4656L44.4671 29.5322L50.3337 32.9989L48.2004 17.5322L33.8004 23.3989L39.4004 26.5989L34.0671 36.1989L24.7337 30.5989L15.4004 46.5989Z" fill="white"/>
<defs>
<linearGradient id="paint0_linear_4713_6845" x1="6.3335" y1="6.86548" x2="6.3335" y2="60.1988" gradientUnits="userSpaceOnUse">
<stop stop-color="#E8016A"/>
<stop offset="1" stop-color="#EE3224"/>
</linearGradient>
</defs>
</svg>
