<svg width="676" height="470" viewBox="0 0 676 470" fill="none" xmlns="http://www.w3.org/2000/svg">
<g filter="url(#filter0_dd_4713_6859)">
<g clip-path="url(#clip0_4713_6859)">
<rect x="38" y="15.5322" width="600" height="391" rx="20" fill="white"/>
<g clip-path="url(#clip1_4713_6859)">
<path d="M59.0002 40.2259C56.6989 40.2259 54.8335 38.3605 54.8335 36.0592C54.8335 33.758 56.6989 31.8926 59.0002 31.8926C61.3014 31.8926 63.1668 33.758 63.1668 36.0592C63.1668 38.3605 61.3014 40.2259 59.0002 40.2259Z" fill="#E11D48"/>
</g>
<g clip-path="url(#clip2_4713_6859)">
<path d="M74.0002 40.2259C71.6989 40.2259 69.8335 38.3605 69.8335 36.0592C69.8335 33.758 71.6989 31.8926 74.0002 31.8926C76.3014 31.8926 78.1668 33.758 78.1668 36.0592C78.1668 38.3605 76.3014 40.2259 74.0002 40.2259Z" fill="#FBBF24"/>
</g>
<g clip-path="url(#clip3_4713_6859)">
<path d="M89.0002 40.2259C86.6989 40.2259 84.8335 38.3605 84.8335 36.0592C84.8335 33.758 86.6989 31.8926 89.0002 31.8926C91.3014 31.8926 93.1668 33.758 93.1668 36.0592C93.1668 38.3605 91.3014 40.2259 89.0002 40.2259Z" fill="#22C55E"/>
</g>
</g>
<rect x="40.5" y="18.0322" width="595" height="386" rx="17.5" stroke="white" stroke-width="5"/>
</g>
<defs>
<filter id="filter0_dd_4713_6859" x="0" y="0.532227" width="676" height="469" filterUnits="userSpaceOnUse" color-interpolation-filters="sRGB">
<feFlood flood-opacity="0" result="BackgroundImageFix"/>
<feColorMatrix in="SourceAlpha" type="matrix" values="0 0 0 0 0 0 0 0 0 0 0 0 0 0 0 0 0 0 127 0" result="hardAlpha"/>
<feOffset/>
<feGaussianBlur stdDeviation="7.5"/>
<feComposite in2="hardAlpha" operator="out"/>
<feColorMatrix type="matrix" values="0 0 0 0 0 0 0 0 0 0 0 0 0 0 0 0 0 0 0.07 0"/>
<feBlend mode="normal" in2="BackgroundImageFix" result="effect1_dropShadow_4713_6859"/>
<feColorMatrix in="SourceAlpha" type="matrix" values="0 0 0 0 0 0 0 0 0 0 0 0 0 0 0 0 0 0 127 0" result="hardAlpha"/>
<feMorphology radius="12" operator="erode" in="SourceAlpha" result="effect2_dropShadow_4713_6859"/>
<feOffset dy="25"/>
<feGaussianBlur stdDeviation="25"/>
<feColorMatrix type="matrix" values="0 0 0 0 0 0 0 0 0 0 0 0 0 0 0 0 0 0 0.25 0"/>
<feBlend mode="normal" in2="effect1_dropShadow_4713_6859" result="effect2_dropShadow_4713_6859"/>
<feBlend mode="normal" in="SourceGraphic" in2="effect2_dropShadow_4713_6859" result="shape"/>
</filter>
<clipPath id="clip0_4713_6859">
<rect x="38" y="15.5322" width="600" height="391" rx="20" fill="white"/>
</clipPath>
<clipPath id="clip1_4713_6859">
<rect width="10" height="10" fill="white" transform="translate(54 31.0322)"/>
</clipPath>
<clipPath id="clip2_4713_6859">
<rect width="10" height="10" fill="white" transform="translate(69 31.0322)"/>
</clipPath>
<clipPath id="clip3_4713_6859">
<rect width="10" height="10" fill="white" transform="translate(84 31.0322)"/>
</clipPath>
</defs>
</svg>
