<svg width="26" height="33" viewBox="0 0 26 33" fill="none" xmlns="http://www.w3.org/2000/svg">
<path d="M15.7628 9.30384C16.7143 9.30471 17.6548 9.51131 18.5231 9.91004C19.3914 10.3088 20.1681 10.8908 20.8024 11.6181L22.7881 9.78214C21.517 8.33249 19.8495 7.30942 18.003 6.84648C16.1565 6.3835 14.2169 6.50214 12.4371 7.18689C10.6574 7.87165 9.12018 9.0907 8.02617 10.685C6.93211 12.2793 6.33207 14.1748 6.30424 16.1241C6.27641 18.0735 6.82215 19.9862 7.8702 21.6126C8.91829 23.2391 10.42 24.5038 12.1795 25.2417C13.9389 25.9795 15.8744 26.1563 17.7333 25.749C19.5921 25.3417 21.2882 24.3691 22.6 22.9583L20.6594 21.0682C19.8864 21.8974 18.9251 22.5171 17.8615 22.8721C16.7978 23.227 15.665 23.3062 14.5643 23.1023C13.4636 22.8985 12.4293 22.4182 11.5538 21.7042C10.6783 20.9902 9.98894 20.0649 9.54738 19.0109C9.10579 17.9569 8.92571 16.8071 9.02326 15.6643C9.12086 14.5214 9.49298 13.4212 10.1064 12.462C10.7199 11.5027 11.5555 10.7143 12.5387 10.1673C13.5218 9.62015 14.6218 9.33147 15.7404 9.32697L15.7628 9.30384Z" fill="#64748B"/>
<path d="M6.78787 7.01004L4.8288 5.11462C3.29837 6.57654 2.08397 8.31423 1.25527 10.228C0.426618 12.1417 0 14.1937 0 16.2661C0 18.3386 0.426618 20.3906 1.25527 22.3043C2.08397 24.218 3.29837 25.9557 4.8288 27.4176L6.78787 25.5222C5.5119 24.3119 4.49886 22.8705 3.80741 21.2816C3.11602 19.6928 2.76 17.988 2.76 16.2661C2.76 14.5442 3.11602 12.8395 3.80741 11.2506C4.49886 9.66172 5.5119 8.22037 6.78787 7.01004Z" fill="#64748B"/>
<path d="M25.2126 3.40566C22.5414 1.36198 19.3137 0.261955 16.0005 0.266125V3.01807C18.7343 3.01546 21.3981 3.9195 23.6066 5.59945L25.2126 3.40566Z" fill="#64748B"/>
<path d="M16.0005 29.5512V32.2661C19.0997 32.2696 22.1327 31.366 24.7278 29.6659L23.2033 27.4176C21.0589 28.8135 18.5567 29.5547 16.0005 29.5512Z" fill="#64748B"/>
<path d="M16.0001 26.1982C13.9006 26.1968 11.8522 25.5689 10.1323 24.3995C8.41228 23.2301 7.10378 21.5756 6.38378 19.66L3.87891 20.7899C4.82218 23.1687 6.48521 25.2143 8.64894 26.657C10.8127 28.0997 13.3756 28.872 16.0001 28.8721V26.1982Z" fill="#64748B"/>
<path d="M6.06846 15.7812C6.23108 13.2307 7.34788 10.8382 9.19219 9.08907C11.0365 7.34003 13.4702 6.36539 15.9996 6.36292V3.66003C12.7605 3.65994 9.64533 4.91822 7.29881 7.17446C4.95229 9.43075 3.55404 12.5122 3.39355 15.7812H6.06846Z" fill="#64748B"/>
</svg>
