<svg width="35" height="33" viewBox="0 0 35 33" fill="none" xmlns="http://www.w3.org/2000/svg">
<path d="M11.3003 13.2583L6.1089 10.2401L0.910645 13.2583V19.2808L6.1089 22.2921L11.3003 19.2808V13.2583ZM10.1824 18.6331L6.1089 20.9897L2.03534 18.6331V13.906L6.1089 11.5425L10.1824 13.906V18.6331Z" fill="#64748B"/>
<path d="M22.5204 13.2514L17.5301 10.2401L12.5464 13.2514V19.2739L17.5301 22.2921L22.5204 19.2739V13.2514Z" fill="#64748B"/>
<path d="M28.96 10.2401L23.7686 13.2583V19.2808L28.96 22.2921L34.1582 19.2808V13.2583L28.96 10.2401ZM33.0336 18.6331L28.96 20.9897L24.8864 18.6331V13.906L28.96 11.5425L33.0336 13.906V18.6331Z" fill="#64748B"/>
<path d="M6.72949 23.2323V29.2548L11.9346 32.2661L17.1191 29.2548V23.2323L11.9346 20.2141L6.72949 23.2323ZM15.9822 28.6277L11.9346 30.9637L7.82531 28.6277V23.88L11.9346 21.5165L15.9959 23.88L15.9822 28.6277Z" fill="#64748B"/>
<path d="M17.9497 23.2323V29.2548L23.1411 32.2661L28.3393 29.2548V23.2323L23.1411 20.2141L17.9497 23.2323ZM27.2146 28.6277L23.1411 30.9844L19.0744 28.6277V23.88L23.1411 21.5165L27.2146 23.88V28.6277Z" fill="#64748B"/>
<path d="M17.1191 9.30678V3.2636L11.9415 0.266113L6.72949 3.2636V9.28613L11.9415 12.3181L17.1191 9.30678ZM7.82676 3.95268L11.9415 1.56847L15.9945 3.95268V8.67975L11.9415 11.0157L7.82676 8.65905V3.95268Z" fill="#64748B"/>
<path d="M28.3393 9.32748V3.28426L23.1411 0.266113L17.9497 3.28426V9.30678L23.1411 12.3181L28.3393 9.32748ZM19.0744 3.97334L23.1411 1.60982L27.2146 3.97334V8.7004L23.1411 11.0571L19.0744 8.7004V3.97334Z" fill="#64748B"/>
</svg>
