<svg width="600" height="42" viewBox="0 0 600 42" fill="none" xmlns="http://www.w3.org/2000/svg">
<g clip-path="url(#clip0_6704_9637)">
<path d="M21.0002 25.2259C18.6989 25.2259 16.8335 23.3605 16.8335 21.0592C16.8335 18.758 18.6989 16.8926 21.0002 16.8926C23.3014 16.8926 25.1668 18.758 25.1668 21.0592C25.1668 23.3605 23.3014 25.2259 21.0002 25.2259Z" fill="#E11D48"/>
</g>
<g clip-path="url(#clip1_6704_9637)">
<path d="M36.0002 25.2259C33.6989 25.2259 31.8335 23.3605 31.8335 21.0592C31.8335 18.758 33.6989 16.8926 36.0002 16.8926C38.3014 16.8926 40.1668 18.758 40.1668 21.0592C40.1668 23.3605 38.3014 25.2259 36.0002 25.2259Z" fill="#FBBF24"/>
</g>
<g clip-path="url(#clip2_6704_9637)">
<path d="M51.0002 25.2259C48.6989 25.2259 46.8335 23.3605 46.8335 21.0592C46.8335 18.758 48.6989 16.8926 51.0002 16.8926C53.3014 16.8926 55.1668 18.758 55.1668 21.0592C55.1668 23.3605 53.3014 25.2259 51.0002 25.2259Z" fill="#22C55E"/>
</g>
<defs>
<clipPath id="clip0_6704_9637">
<rect width="10" height="10" fill="white" transform="translate(16 16.0322)"/>
</clipPath>
<clipPath id="clip1_6704_9637">
<rect width="10" height="10" fill="white" transform="translate(31 16.0322)"/>
</clipPath>
<clipPath id="clip2_6704_9637">
<rect width="10" height="10" fill="white" transform="translate(46 16.0322)"/>
</clipPath>
</defs>
</svg>
