<svg width="30" height="33" viewBox="0 0 30 33" fill="none" xmlns="http://www.w3.org/2000/svg">
<path d="M14.6356 22.0522C13.7583 22.0561 12.8926 21.8435 12.1095 21.4321C11.3265 21.0205 10.6482 20.4218 10.1307 19.6849L6.52295 21.8405C6.66023 22.0051 6.82276 22.1449 7.00399 22.2543L13.4238 26.1036C13.799 26.303 14.2143 26.4069 14.6356 26.4069C15.0569 26.4069 15.4722 26.303 15.8474 26.1036L22.2673 22.2543C22.4485 22.1449 22.611 22.0051 22.7483 21.8405L19.1499 19.6464C18.6353 20.3917 17.9575 20.9987 17.1724 21.4171C16.3873 21.8355 15.5177 22.0532 14.6356 22.0522Z" fill="#64748B"/>
<path d="M8.98615 16.2431C8.98944 14.8745 9.52136 13.5551 10.4802 12.537C11.4391 11.5189 12.7577 10.8735 14.184 10.7243V6.57593C13.9676 6.61883 13.7594 6.69329 13.5668 6.79668L6.87424 10.4759C6.51048 10.708 6.20801 11.0173 5.99054 11.3796C5.77303 11.7418 5.64643 12.1471 5.62061 12.5638V19.9223C5.62358 20.1346 5.65928 20.3454 5.72666 20.5478L9.48765 18.4782C9.15877 17.7747 8.98795 17.0133 8.98615 16.2431Z" fill="#64748B"/>
<path d="M22.4621 10.4733L16.1218 6.79655C15.9394 6.6932 15.7421 6.61879 15.5371 6.57593V10.7123C16.3985 10.8105 17.2249 11.1108 17.9498 11.5891C18.6747 12.0673 19.2779 12.7101 19.7107 13.4658C20.1436 14.2214 20.394 15.0688 20.4419 15.9397C20.4897 16.8105 20.3337 17.6805 19.9863 18.4796L23.5493 20.5478C23.6131 20.3455 23.647 20.1349 23.6498 19.9227V12.5691C23.6267 12.1511 23.5074 11.7442 23.3013 11.3805C23.0951 11.0168 22.8079 10.7062 22.4621 10.4733Z" fill="#64748B"/>
<path d="M27.0796 6.7883L16.6129 0.73498C15.999 0.426653 15.3217 0.266113 14.6349 0.266113C13.9482 0.266113 13.2709 0.426653 12.6571 0.73498L2.19027 6.7883C1.61576 7.1631 1.13743 7.66794 0.793811 8.26201C0.450239 8.85608 0.251073 9.52272 0.212402 10.2081V22.3147C0.250352 23.0015 0.449158 23.6697 0.79273 24.2654C1.1363 24.8612 1.61504 25.3676 2.19027 25.7439L12.6571 31.7974C13.2709 32.1057 13.9482 32.2661 14.6349 32.2661C15.3217 32.2661 15.999 32.1057 16.6129 31.7974L27.0796 25.7439C27.6548 25.3676 28.1336 24.8612 28.4771 24.2654C28.8207 23.6697 29.0195 23.0015 29.0575 22.3147V10.2081C29.0188 9.52272 28.8196 8.85608 28.4761 8.26201C28.1324 7.66794 27.6541 7.1631 27.0796 6.7883ZM25.7357 20.9221C25.705 21.4498 25.5512 21.9628 25.2866 22.4201C25.022 22.8775 24.654 23.2664 24.2121 23.5557L16.1491 28.2164C15.6781 28.4545 15.1578 28.5786 14.6302 28.5786C14.1026 28.5786 13.5823 28.4545 13.1113 28.2164L5.05779 23.5557C4.61587 23.2664 4.24787 22.8775 3.98331 22.4201C3.7187 21.9628 3.56487 21.4498 3.53414 20.9221V11.6101C3.56487 11.0825 3.7187 10.5694 3.98331 10.1121C4.24787 9.65473 4.61587 9.26582 5.05779 8.97656L13.1018 4.31583C13.5728 4.07772 14.0931 3.95364 14.6207 3.95364C15.1484 3.95364 15.6687 4.07772 16.1397 4.31583L24.2026 8.97656C24.6463 9.26478 25.0161 9.65325 25.2824 10.1107C25.5487 10.568 25.704 11.0817 25.7357 11.6101V20.9221Z" fill="#64748B"/>
<path d="M10.5801 16.266C10.5801 17.0237 10.818 17.7644 11.2637 18.3944C11.7094 19.0244 12.3429 19.5154 13.0841 19.8054C13.8253 20.0954 14.6409 20.1712 15.4278 20.0234C16.2146 19.8756 16.9374 19.5108 17.5047 18.975C18.072 18.4392 18.4583 17.7566 18.6148 17.0134C18.7713 16.2703 18.691 15.5 18.384 14.8C18.077 14.1 17.5571 13.5016 16.89 13.0807C16.223 12.6597 15.4387 12.4351 14.6364 12.4351C13.5606 12.4351 12.5289 12.8387 11.7682 13.5571C11.0074 14.2756 10.5801 15.25 10.5801 16.266Z" fill="#64748B"/>
</svg>
