<svg width="33" height="33" viewBox="0 0 33 33" fill="none" xmlns="http://www.w3.org/2000/svg">
<path d="M5.02512 6.33325L0.0576172 11.3008L5.02512 16.2683L9.99262 11.3008L5.02512 6.33325Z" fill="#64748B"/>
<path d="M10.0013 11.2986L5.03191 6.32922C6.34881 7.6466 7.08862 9.43309 7.08862 11.2958C7.08862 13.1586 6.34881 14.9451 5.03191 16.2624L0.0625 21.2263L5.03191 26.1956L10.0013 21.2263L14.9707 16.2624L10.0013 11.2986Z" fill="#CBD5E1"/>
<path d="M27.0852 26.2065L32.0526 21.239L27.0852 16.2715L22.1177 21.239L27.0852 26.2065Z" fill="#64748B"/>
<path d="M22.1181 21.2374L27.0875 26.2012C25.7706 24.8838 25.0308 23.0974 25.0308 21.2346C25.0308 19.3719 25.7706 17.5854 27.0875 16.268L32.057 11.2986L27.0875 6.32922L22.1181 11.2986L17.1543 16.268L22.1181 21.2374Z" fill="#CBD5E1"/>
<path d="M6.12451 27.2986L11.092 32.2661L16.0595 27.2986L11.092 22.3311L6.12451 27.2986Z" fill="#64748B"/>
<path d="M11.0919 22.3237L6.12256 27.2931C7.43994 25.9762 9.22638 25.2364 11.0891 25.2364C12.9519 25.2364 14.7383 25.9762 16.0557 27.2931L21.0196 32.2626L25.989 27.2931L21.0196 22.3237L16.0557 17.3599L11.0919 22.3237Z" fill="#CBD5E1"/>
<path d="M25.998 5.23365L21.0305 0.266113L16.063 5.23361L21.0305 10.2012L25.998 5.23365Z" fill="#64748B"/>
<path d="M21.0307 10.2066L25.9946 5.23724C24.6771 6.55414 22.8906 7.29394 21.0279 7.29394C19.1652 7.29394 17.3787 6.55414 16.0613 5.23724L11.0919 0.267822L6.12256 5.23724L11.0919 10.2066L16.0613 15.176L21.0307 10.2066Z" fill="#CBD5E1"/>
</svg>
