<svg width="28" height="33" viewBox="0 0 28 33" fill="none" xmlns="http://www.w3.org/2000/svg">
<path d="M13.9783 3.3776L19.2957 6.44823L21.9919 4.89589L13.9783 0.266113L0.592773 8.00057L3.27532 9.5529L13.9783 3.3776Z" fill="#64748B"/>
<path d="M24.6766 6.44824L13.9804 12.6235L8.66299 9.55292L5.97363 11.1053L13.9804 15.7282L27.3727 8.00058L24.6766 6.44824Z" fill="#64748B"/>
<path d="M2.746 16.8381L0.0566406 15.2858V24.5317L13.4421 32.2662V29.1615L2.746 22.9794V16.8381Z" fill="#64748B"/>
<path d="M0.0566406 12.181L10.7528 18.3563V24.4975L13.4421 26.0567V16.8039L0.0566406 9.07629V12.181Z" fill="#64748B"/>
<path d="M22.5326 15.2857V12.181L14.519 16.804V32.2661L17.2084 30.7138V18.3563L22.5326 15.2857Z" fill="#64748B"/>
<path d="M25.2144 10.6286V22.9792L19.897 26.0567V29.1614L27.9106 24.5316V9.07629L25.2144 10.6286Z" fill="#64748B"/>
</svg>
