<svg width="692" height="654" viewBox="0 0 692 654" fill="none" xmlns="http://www.w3.org/2000/svg">
<path fill-rule="evenodd" clip-rule="evenodd" d="M170.431 184.911C133.54 230.904 101.849 300.318 99.4765 373.346C97.1037 446.373 133.156 498.856 193.052 541.823C305.439 622.445 448.148 584.197 487.756 523.009C524.751 465.857 529.185 421.151 501.955 355.63C474.725 290.109 456.081 243.73 461.968 185.192C467.767 127.522 462.963 91.1899 430.75 74.6015C395.909 56.6601 354.113 54.1915 307.751 74.6012C260.452 95.4231 204.75 142.124 170.431 184.911Z" fill="#FB923C"/>
<path d="M199.025 202.811L202.625 200.918L201.938 204.927L204.852 207.767L200.826 208.352L199.025 212.001L197.224 208.352L193.198 207.767L196.111 204.927L195.423 200.918L199.025 202.811Z" fill="#FACC15"/>
<g clip-path="url(#clip0_6883_22348)">
<path d="M204.524 438.108L207.354 436.621L206.813 439.771L209.103 442.003L205.94 442.462L204.524 445.329L203.109 442.462L199.946 442.003L202.235 439.771L201.695 436.621L204.524 438.108Z" fill="#FACC15"/>
</g>
<g clip-path="url(#clip1_6883_22348)">
<path d="M175.49 260.097C177.101 260.097 178.407 261.402 178.407 263.013C178.407 264.624 177.101 265.93 175.49 265.93C173.879 265.93 172.573 264.624 172.573 263.013C172.573 261.402 173.879 260.097 175.49 260.097Z" fill="#FACC15"/>
</g>
<g clip-path="url(#clip2_6883_22348)">
<path d="M176.973 147.177C178.814 147.177 180.306 148.67 180.306 150.511C180.306 152.352 178.814 153.844 176.973 153.844C175.132 153.844 173.639 152.352 173.639 150.511C173.639 148.67 175.132 147.177 176.973 147.177Z" fill="#FACC15"/>
</g>
<g clip-path="url(#clip3_6883_22348)">
<path d="M112.024 127.338C114.326 127.338 116.191 129.203 116.191 131.505C116.191 133.806 114.326 135.671 112.024 135.671C109.723 135.671 107.858 133.806 107.858 131.505C107.858 129.203 109.723 127.338 112.024 127.338Z" fill="#FACC15"/>
</g>
<g clip-path="url(#clip4_6883_22348)">
<path d="M144.976 221.339C147.278 221.339 149.143 223.204 149.143 225.505C149.143 227.806 147.278 229.672 144.976 229.672C142.675 229.672 140.81 227.806 140.81 225.505C140.81 223.204 142.675 221.339 144.976 221.339Z" fill="#FACC15"/>
</g>
<g clip-path="url(#clip5_6883_22348)">
<path d="M194.525 568.419C197.056 568.419 199.108 570.47 199.108 573.002C199.108 575.533 197.056 577.585 194.525 577.585C191.993 577.585 189.941 575.533 189.941 573.002C189.941 570.47 191.993 568.419 194.525 568.419Z" fill="#FACC15"/>
</g>
<g clip-path="url(#clip6_6883_22348)">
<path d="M194.024 342.854C194.945 342.854 195.691 343.6 195.691 344.521C195.691 345.441 194.945 346.188 194.024 346.188C193.104 346.188 192.358 345.441 192.358 344.521C192.358 343.6 193.104 342.854 194.024 342.854Z" fill="#FACC15"/>
</g>
<path d="M74.4998 306.097C76.1107 306.097 77.4165 307.402 77.4165 309.013C77.4165 310.624 76.1107 311.93 74.4998 311.93C72.889 311.93 71.5832 310.624 71.5832 309.013C71.5832 307.402 72.889 306.097 74.4998 306.097Z" fill="#FACC15"/>
<g clip-path="url(#clip7_6883_22348)">
<path d="M79.9785 539.016C81.3593 539.016 82.4785 540.135 82.4785 541.516C82.4785 542.897 81.3593 544.016 79.9785 544.016C78.5978 544.016 77.4785 542.897 77.4785 541.516C77.4785 540.135 78.5978 539.016 79.9785 539.016Z" fill="#FACC15"/>
</g>
<path d="M159.649 473.407V476.532C159.649 476.697 159.715 476.856 159.832 476.974C159.95 477.091 160.109 477.157 160.274 477.157C160.44 477.157 160.599 477.091 160.716 476.974C160.834 476.856 160.899 476.697 160.899 476.532V473.407H164.024C164.19 473.407 164.349 473.341 164.466 473.224C164.584 473.106 164.649 472.947 164.649 472.782C164.649 472.616 164.584 472.457 164.466 472.34C164.349 472.223 164.19 472.157 164.024 472.157H160.899V469.032C160.899 468.866 160.834 468.707 160.716 468.59C160.599 468.473 160.44 468.407 160.274 468.407C160.109 468.407 159.95 468.473 159.832 468.59C159.715 468.707 159.649 468.866 159.649 469.032V472.157H156.524C156.359 472.157 156.2 472.223 156.082 472.34C155.965 472.457 155.899 472.616 155.899 472.782C155.899 472.947 155.965 473.106 156.082 473.224C156.2 473.341 156.359 473.407 156.524 473.407H159.649Z" fill="#FACC15"/>
<path d="M176.558 401.732V403.398C176.558 403.487 176.593 403.572 176.656 403.634C176.718 403.697 176.803 403.732 176.891 403.732C176.98 403.732 177.064 403.697 177.127 403.634C177.189 403.572 177.225 403.487 177.225 403.398V401.732H178.891C178.98 401.732 179.064 401.697 179.127 401.634C179.189 401.572 179.225 401.487 179.225 401.398C179.225 401.31 179.189 401.225 179.127 401.163C179.064 401.1 178.98 401.065 178.891 401.065H177.225V399.398C177.225 399.31 177.189 399.225 177.127 399.163C177.064 399.1 176.98 399.065 176.891 399.065C176.803 399.065 176.718 399.1 176.656 399.163C176.593 399.225 176.558 399.31 176.558 399.398V401.065H174.891C174.803 401.065 174.718 401.1 174.656 401.163C174.593 401.225 174.558 401.31 174.558 401.398C174.558 401.487 174.593 401.572 174.656 401.634C174.718 401.697 174.803 401.732 174.891 401.732H176.558Z" fill="#FACC15"/>
<g clip-path="url(#clip8_6883_22348)">
<path d="M120.024 366.015C121.405 366.015 122.524 367.135 122.524 368.515C122.524 369.896 121.405 371.015 120.024 371.015C118.644 371.015 117.524 369.896 117.524 368.515C117.524 367.135 118.644 366.015 120.024 366.015Z" fill="#FACC15"/>
</g>
<path d="M160.324 94.8318V97.3318C160.324 97.4644 160.377 97.5916 160.471 97.6853C160.564 97.7791 160.692 97.8318 160.824 97.8318C160.957 97.8318 161.084 97.7791 161.178 97.6853C161.272 97.5916 161.324 97.4644 161.324 97.3318V94.8318H163.824C163.957 94.8318 164.084 94.7791 164.178 94.6853C164.272 94.5916 164.324 94.4644 164.324 94.3318C164.324 94.1992 164.272 94.072 164.178 93.9782C164.084 93.8845 163.957 93.8318 163.824 93.8318H161.324V91.3318C161.324 91.1992 161.272 91.072 161.178 90.9782C161.084 90.8845 160.957 90.8318 160.824 90.8318C160.692 90.8318 160.564 90.8845 160.471 90.9782C160.377 91.072 160.324 91.1992 160.324 91.3318V93.8318H157.824C157.692 93.8318 157.564 93.8845 157.471 93.9782C157.377 94.072 157.324 94.1992 157.324 94.3318C157.324 94.4644 157.377 94.5916 157.471 94.6853C157.564 94.7791 157.692 94.8318 157.824 94.8318H160.324Z" fill="#FACC15"/>
<path d="M74.2507 218.053L73.5142 218.789C73.4943 218.808 73.4785 218.831 73.4676 218.857C73.4566 218.882 73.4509 218.91 73.4506 218.937C73.4504 218.965 73.4557 218.992 73.4662 219.018C73.4766 219.044 73.4921 219.067 73.5117 219.086C73.5312 219.106 73.5545 219.121 73.5801 219.132C73.6057 219.142 73.6331 219.148 73.6608 219.147C73.6884 219.147 73.7158 219.141 73.7412 219.131C73.7666 219.12 73.7896 219.104 73.8088 219.084L74.5455 218.347L75.282 219.084C75.3012 219.104 75.3242 219.12 75.3496 219.131C75.375 219.141 75.4023 219.147 75.43 219.147C75.4577 219.148 75.4851 219.142 75.5107 219.132C75.5363 219.121 75.5596 219.106 75.5791 219.086C75.5987 219.067 75.6141 219.044 75.6246 219.018C75.6351 218.992 75.6404 218.965 75.6401 218.937C75.6399 218.91 75.6341 218.882 75.6232 218.857C75.6123 218.831 75.5964 218.808 75.5765 218.789L74.8401 218.053L75.5765 217.316C75.5964 217.297 75.6123 217.274 75.6232 217.249C75.6341 217.223 75.6399 217.196 75.6401 217.168C75.6404 217.14 75.6351 217.113 75.6246 217.087C75.6141 217.062 75.5987 217.039 75.5791 217.019C75.5596 216.999 75.5363 216.984 75.5107 216.973C75.4851 216.963 75.4577 216.958 75.43 216.958C75.4023 216.958 75.375 216.964 75.3496 216.975C75.3242 216.986 75.3012 217.002 75.282 217.022L74.5455 217.758L73.8088 217.022C73.7896 217.002 73.7666 216.986 73.7412 216.975C73.7158 216.964 73.6884 216.958 73.6608 216.958C73.6331 216.958 73.6057 216.963 73.5801 216.973C73.5545 216.984 73.5312 216.999 73.5117 217.019C73.4921 217.039 73.4766 217.062 73.4662 217.087C73.4557 217.113 73.4504 217.14 73.4506 217.168C73.4509 217.196 73.4566 217.223 73.4676 217.249C73.4785 217.274 73.4943 217.297 73.5142 217.316L74.2507 218.053V218.053Z" fill="#FACC15"/>
<path d="M172.703 628.094L170.494 630.304C170.434 630.362 170.387 630.431 170.354 630.507C170.321 630.583 170.304 630.665 170.303 630.748C170.302 630.831 170.318 630.914 170.35 630.991C170.381 631.067 170.427 631.137 170.486 631.196C170.545 631.255 170.615 631.301 170.691 631.332C170.768 631.364 170.851 631.38 170.934 631.379C171.017 631.378 171.099 631.361 171.175 631.328C171.251 631.295 171.32 631.248 171.378 631.188L173.588 628.979L175.797 631.188C175.855 631.248 175.924 631.295 176 631.328C176.076 631.361 176.158 631.378 176.241 631.379C176.324 631.38 176.406 631.364 176.483 631.332C176.56 631.301 176.63 631.255 176.689 631.196C176.747 631.137 176.794 631.067 176.825 630.991C176.856 630.914 176.872 630.831 176.872 630.748C176.871 630.665 176.854 630.583 176.821 630.507C176.788 630.431 176.74 630.362 176.681 630.304L174.471 628.095L176.681 625.885C176.74 625.827 176.788 625.758 176.821 625.682C176.854 625.606 176.871 625.524 176.872 625.441C176.872 625.358 176.856 625.276 176.825 625.199C176.794 625.122 176.747 625.052 176.689 624.993C176.63 624.935 176.56 624.888 176.483 624.857C176.406 624.826 176.324 624.81 176.241 624.81C176.158 624.811 176.076 624.828 176 624.861C175.924 624.894 175.855 624.942 175.797 625.001L173.588 627.211L171.378 625.001C171.32 624.942 171.251 624.894 171.175 624.861C171.099 624.828 171.017 624.811 170.934 624.81C170.851 624.81 170.768 624.826 170.691 624.857C170.615 624.888 170.545 624.935 170.486 624.993C170.427 625.052 170.381 625.122 170.35 625.199C170.318 625.276 170.302 625.358 170.303 625.441C170.304 625.524 170.321 625.606 170.354 625.682C170.387 625.758 170.434 625.827 170.494 625.885L172.703 628.095V628.094Z" fill="#FACC15"/>
<path d="M80.2881 59.8323V62.3323C80.2881 62.4649 80.3408 62.5921 80.4345 62.6858C80.5283 62.7796 80.6555 62.8323 80.7881 62.8323C80.9207 62.8323 81.0479 62.7796 81.1416 62.6858C81.2354 62.5921 81.2881 62.4649 81.2881 62.3323V59.8323H83.7881C83.9207 59.8323 84.0479 59.7796 84.1416 59.6858C84.2354 59.5921 84.2881 59.4649 84.2881 59.3323C84.2881 59.1997 84.2354 59.0725 84.1416 58.9787C84.0479 58.885 83.9207 58.8323 83.7881 58.8323H81.2881V56.3323C81.2881 56.1997 81.2354 56.0725 81.1416 55.9787C81.0479 55.885 80.9207 55.8323 80.7881 55.8323C80.6555 55.8323 80.5283 55.885 80.4345 55.9787C80.3408 56.0725 80.2881 56.1997 80.2881 56.3323V58.8323H77.7881C77.6555 58.8323 77.5283 58.885 77.4345 58.9787C77.3408 59.0725 77.2881 59.1997 77.2881 59.3323C77.2881 59.4649 77.3408 59.5921 77.4345 59.6858C77.5283 59.7796 77.6555 59.8323 77.7881 59.8323H80.2881Z" fill="#FACC15"/>
<path d="M147.441 573.782V575.865C147.441 575.976 147.485 576.082 147.563 576.16C147.641 576.238 147.747 576.282 147.858 576.282C147.968 576.282 148.074 576.238 148.152 576.16C148.231 576.082 148.274 575.976 148.274 575.865V573.782H150.358C150.468 573.782 150.574 573.738 150.652 573.66C150.731 573.582 150.774 573.476 150.774 573.365C150.774 573.255 150.731 573.149 150.652 573.07C150.574 572.992 150.468 572.948 150.358 572.948H148.274V570.865C148.274 570.755 148.231 570.649 148.152 570.57C148.074 570.492 147.968 570.448 147.858 570.448C147.747 570.448 147.641 570.492 147.563 570.57C147.485 570.649 147.441 570.755 147.441 570.865V572.948H145.358C145.247 572.948 145.141 572.992 145.063 573.07C144.985 573.149 144.941 573.255 144.941 573.365C144.941 573.476 144.985 573.582 145.063 573.66C145.141 573.738 145.247 573.782 145.358 573.782H147.441Z" fill="#FACC15"/>
<path d="M97.5865 244.565L96.4081 245.744C96.3763 245.775 96.3509 245.811 96.3334 245.852C96.316 245.893 96.3068 245.936 96.3064 245.981C96.306 246.025 96.3144 246.069 96.3312 246.11C96.348 246.151 96.3727 246.188 96.404 246.219C96.4353 246.251 96.4725 246.275 96.5135 246.292C96.5545 246.309 96.5983 246.317 96.6426 246.317C96.6869 246.316 96.7306 246.307 96.7713 246.29C96.8119 246.272 96.8487 246.247 96.8795 246.215L98.0581 245.037L99.2365 246.215C99.2672 246.247 99.304 246.272 99.3447 246.29C99.3853 246.307 99.4291 246.316 99.4733 246.317C99.5176 246.317 99.5615 246.309 99.6025 246.292C99.6434 246.275 99.6806 246.251 99.7119 246.219C99.7432 246.188 99.768 246.151 99.7847 246.11C99.8015 246.069 99.8099 246.025 99.8096 245.981C99.8092 245.936 99.8 245.893 99.7825 245.852C99.765 245.811 99.7396 245.775 99.7078 245.744L98.5295 244.565L99.7078 243.387C99.7396 243.356 99.765 243.319 99.7825 243.279C99.8 243.238 99.8092 243.194 99.8096 243.15C99.8099 243.106 99.8015 243.062 99.7847 243.021C99.768 242.98 99.7432 242.943 99.7119 242.911C99.6806 242.88 99.6434 242.855 99.6025 242.839C99.5615 242.822 99.5176 242.813 99.4733 242.814C99.4291 242.814 99.3853 242.823 99.3447 242.841C99.304 242.858 99.2672 242.884 99.2365 242.915L98.0581 244.094L96.8795 242.915C96.8487 242.884 96.8119 242.858 96.7713 242.841C96.7306 242.823 96.6869 242.814 96.6426 242.814C96.5983 242.813 96.5545 242.822 96.5135 242.839C96.4725 242.855 96.4353 242.88 96.404 242.911C96.3727 242.943 96.348 242.98 96.3312 243.021C96.3144 243.062 96.306 243.106 96.3064 243.15C96.3068 243.194 96.316 243.238 96.3334 243.279C96.3509 243.319 96.3763 243.356 96.4081 243.387L97.5865 244.565V244.565Z" fill="#FACC15"/>
<defs>
<clipPath id="clip0_6883_22348">
<rect width="11" height="11" fill="white" transform="matrix(-1 0 0 -1 210.024 446.532)"/>
</clipPath>
<clipPath id="clip1_6883_22348">
<rect width="7" height="7" fill="white" transform="matrix(-1 0 0 -1 178.99 266.532)"/>
</clipPath>
<clipPath id="clip2_6883_22348">
<rect width="8" height="8" fill="white" transform="matrix(-1 0 0 -1 180.973 154.532)"/>
</clipPath>
<clipPath id="clip3_6883_22348">
<rect width="10" height="10" fill="white" transform="matrix(-1 0 0 -1 117.024 136.532)"/>
</clipPath>
<clipPath id="clip4_6883_22348">
<rect width="10" height="10" fill="white" transform="matrix(-1 0 0 -1 149.977 230.532)"/>
</clipPath>
<clipPath id="clip5_6883_22348">
<rect width="11" height="11" fill="white" transform="matrix(-1 0 0 -1 200.024 578.532)"/>
</clipPath>
<clipPath id="clip6_6883_22348">
<rect width="4" height="4" fill="white" transform="matrix(-1 0 0 -1 196.024 346.532)"/>
</clipPath>
<clipPath id="clip7_6883_22348">
<rect width="6" height="6" fill="white" transform="matrix(-1 0 0 -1 82.9785 544.532)"/>
</clipPath>
<clipPath id="clip8_6883_22348">
<rect width="6" height="6" fill="white" transform="matrix(-1 0 0 -1 123.024 371.532)"/>
</clipPath>
</defs>
</svg>
