<svg width="64" height="65" viewBox="0 0 64 65" fill="none" xmlns="http://www.w3.org/2000/svg">
<path d="M15.2151 4.03225C15.1321 4.03148 15.0503 4.05137 14.9769 4.09011C14.9036 4.12886 14.841 4.18524 14.7949 4.25419C14.7488 4.32313 14.7205 4.40247 14.7127 4.48505C14.7049 4.56763 14.7177 4.65087 14.7501 4.72725L15.0376 5.406L20.1251 17.2685C20.1596 17.3492 20.2148 17.4193 20.2851 17.4719C20.3554 17.5245 20.4383 17.5577 20.5255 17.568C20.6126 17.5784 20.701 17.5657 20.7817 17.5311C20.8623 17.4965 20.9325 17.4413 20.9851 17.371L30.375 4.83225C30.4308 4.75796 30.4647 4.66963 30.473 4.57715C30.4814 4.48467 30.4638 4.39169 30.4223 4.30864C30.3807 4.22559 30.3169 4.15574 30.2379 4.10692C30.1589 4.05811 30.0679 4.03225 29.9751 4.03225H15.2151Z" fill="#FACC15"/>
<path d="M52.4911 7.2897L47.3311 19.3359C47.2987 19.412 47.2856 19.4949 47.2931 19.5773C47.3005 19.6596 47.3283 19.7388 47.3738 19.8078C47.4194 19.8768 47.4814 19.9334 47.5542 19.9726C47.6271 20.0117 47.7085 20.0322 47.7911 20.0322H60.4161C60.5053 20.0322 60.5928 20.0084 60.6697 19.9633C60.7465 19.9181 60.8099 19.8532 60.8533 19.7753C60.8966 19.6974 60.9184 19.6094 60.9162 19.5202C60.9141 19.4311 60.8882 19.3442 60.8411 19.2684L53.3749 7.22345C53.3267 7.1459 53.2581 7.08305 53.1767 7.04171C53.0952 7.00037 53.004 6.98212 52.913 6.98895C52.8219 6.99578 52.7344 7.02742 52.6601 7.08043C52.5857 7.13345 52.5273 7.20583 52.4911 7.2897Z" fill="#FACC15"/>
<path d="M10.6249 7.22851L3.16116 19.2685C3.11414 19.3442 3.08821 19.4312 3.08608 19.5203C3.08395 19.6094 3.10568 19.6975 3.14903 19.7754C3.19238 19.8533 3.25576 19.9182 3.33262 19.9633C3.40948 20.0085 3.49701 20.0323 3.58616 20.0323H16.2112C16.2939 20.0322 16.3753 20.0115 16.4481 19.9722C16.5209 19.9329 16.5828 19.8761 16.6283 19.807C16.6738 19.7379 16.7014 19.6586 16.7086 19.5761C16.7159 19.4937 16.7026 19.4108 16.6699 19.3348L11.4999 7.29476C11.4629 7.21297 11.4046 7.14265 11.3311 7.09116C11.2576 7.03968 11.1716 7.00894 11.0821 7.00216C10.9926 6.99538 10.9029 7.01282 10.8224 7.05265C10.742 7.09248 10.6738 7.15322 10.6249 7.22851V7.22851Z" fill="#FACC15"/>
<path d="M49.1587 4.03223H33.4775C33.4322 4.03194 33.3878 4.04431 33.3492 4.06795C33.3106 4.09159 33.2794 4.12555 33.2591 4.166C33.2389 4.20644 33.2303 4.25176 33.2344 4.29682C33.2385 4.34188 33.2552 4.38489 33.2825 4.42098L43.2725 17.7285C43.298 17.7627 43.332 17.7895 43.3712 17.8063C43.4104 17.8232 43.4533 17.8293 43.4957 17.8243C43.538 17.8192 43.5783 17.803 43.6124 17.7775C43.6465 17.7519 43.6733 17.7177 43.69 17.6785L48.95 5.40723L49.375 4.36473C49.3899 4.32895 49.396 4.29007 49.3927 4.25142C49.3893 4.21277 49.3767 4.17551 49.3558 4.14282C49.3349 4.11014 49.3064 4.083 49.2727 4.06374C49.2391 4.04448 49.2012 4.03367 49.1625 4.03223H49.1587Z" fill="#FACC15"/>
<path d="M29.8749 56.0322L18.6962 24.346C18.6633 24.254 18.6028 24.1744 18.5229 24.1182C18.443 24.062 18.3476 24.032 18.2499 24.0322H3.21242C3.12531 24.032 3.03988 24.0562 2.96587 24.1021C2.89186 24.1481 2.83224 24.2139 2.7938 24.2921C2.75537 24.3702 2.73967 24.4576 2.74848 24.5443C2.7573 24.631 2.79028 24.7134 2.84367 24.7822L29.8437 59.7585C29.9351 59.8768 30.0655 59.959 30.2117 59.9903C30.3579 60.0217 30.5105 60.0002 30.6424 59.9297V59.9297C30.7751 59.8599 30.8782 59.7448 30.9331 59.6053C30.9879 59.4658 30.9908 59.3112 30.9412 59.1697L29.8749 56.0322Z" fill="#FACC15"/>
<path d="M60.7873 24.0322H45.7498C45.6526 24.0322 45.5578 24.0624 45.4785 24.1186C45.3993 24.1748 45.3394 24.2543 45.3073 24.346L33.0323 59.116C32.9807 59.2619 32.9829 59.4215 33.0383 59.566C33.0937 59.7106 33.1988 59.8307 33.3348 59.9047C33.4708 59.9784 33.6285 60.0013 33.7798 59.9695C33.9311 59.9377 34.0662 59.8531 34.161 59.731L61.156 24.7822C61.2094 24.7134 61.2424 24.631 61.2512 24.5443C61.2601 24.4576 61.2443 24.3702 61.2059 24.2921C61.1675 24.2139 61.1079 24.1481 61.0338 24.1021C60.9598 24.0562 60.8744 24.032 60.7873 24.0322V24.0322Z" fill="#FACC15"/>
<path d="M32.4001 9.89849L39.4001 19.2322C39.4558 19.3065 39.4898 19.3949 39.4981 19.4873C39.5064 19.5798 39.4889 19.6728 39.4473 19.7558C39.4058 19.8389 39.342 19.9087 39.263 19.9576C39.184 20.0064 39.093 20.0322 39.0001 20.0322H25.0001C24.9073 20.0322 24.8163 20.0064 24.7373 19.9576C24.6583 19.9087 24.5944 19.8389 24.5529 19.7558C24.5114 19.6728 24.4938 19.5798 24.5021 19.4873C24.5105 19.3949 24.5444 19.3065 24.6001 19.2322L31.6001 9.89849C31.6467 9.83639 31.7071 9.78599 31.7765 9.75127C31.8459 9.71656 31.9225 9.69849 32.0001 9.69849C32.0778 9.69849 32.1543 9.71656 32.2237 9.75127C32.2932 9.78599 32.3536 9.83639 32.4001 9.89849ZM31.5251 48.6872L23.0626 24.6985C23.0361 24.6231 23.0279 24.5425 23.039 24.4633C23.05 24.3841 23.0798 24.3088 23.126 24.2435C23.1721 24.1782 23.2333 24.125 23.3042 24.0883C23.3752 24.0515 23.454 24.0323 23.5339 24.0322H40.4664C40.5463 24.0323 40.6251 24.0515 40.696 24.0883C40.767 24.125 40.8281 24.1782 40.8743 24.2435C40.9204 24.3088 40.9503 24.3841 40.9613 24.4633C40.9723 24.5425 40.9642 24.6231 40.9376 24.6985L32.4714 48.6872C32.4368 48.7846 32.373 48.8689 32.2886 48.9285C32.2042 48.9881 32.1034 49.0201 32.0001 49.0201C31.8968 49.0201 31.796 48.9881 31.7116 48.9285C31.6273 48.8689 31.5634 48.7846 31.5289 48.6872H31.5251Z" fill="#FB923C"/>
</svg>
