<svg width="65" height="65" viewBox="0 0 65 65" fill="none" xmlns="http://www.w3.org/2000/svg">
<path d="M32.333 46.0322C31.9849 46.0321 31.6427 45.9412 31.3405 45.7684L13.833 35.7621C13.6809 35.6743 13.5083 35.6281 13.3326 35.6282C13.157 35.6282 12.9844 35.6746 12.8324 35.7625C12.6803 35.8505 12.5541 35.9769 12.4664 36.1291C12.3788 36.2814 12.3327 36.454 12.333 36.6297V46.0322C12.3327 46.3891 12.428 46.7396 12.6089 47.0474C12.7898 47.3551 13.0497 47.6088 13.3618 47.7822L31.3618 57.7822C31.6589 57.9472 31.9931 58.0338 32.333 58.0338C32.6729 58.0338 33.0072 57.9472 33.3043 57.7822L51.3043 47.7822C51.6163 47.6088 51.8763 47.3551 52.0572 47.0474C52.2381 46.7396 52.3333 46.3891 52.333 46.0322V36.6297C52.3333 36.454 52.2872 36.2814 52.1996 36.1291C52.1119 35.9769 51.9857 35.8505 51.8336 35.7625C51.6816 35.6746 51.509 35.6282 51.3334 35.6282C51.1577 35.6281 50.9851 35.6743 50.833 35.7621L33.3255 45.7684C33.0233 45.9412 32.6812 46.0321 32.333 46.0322Z" fill="#FACC15"/>
<path d="M62.3229 23.8446C62.3229 23.8446 62.3229 23.8346 62.3229 23.8309C62.2905 23.5138 62.1829 23.2091 62.009 22.9421C61.835 22.6751 61.5998 22.4536 61.3229 22.2959L33.3229 6.29587C33.0206 6.1231 32.6785 6.03223 32.3304 6.03223C31.9822 6.03223 31.6401 6.1231 31.3379 6.29587L3.33788 22.2959C3.03186 22.4708 2.77752 22.7236 2.60063 23.0285C2.42373 23.3334 2.33057 23.6796 2.33057 24.0321C2.33057 24.3846 2.42373 24.7309 2.60063 25.0358C2.77752 25.3407 3.03186 25.5934 3.33788 25.7684L31.3379 41.7684C31.6401 41.9411 31.9822 42.032 32.3304 42.032C32.6785 42.032 33.0206 41.9411 33.3229 41.7684L57.9579 27.6921C57.996 27.6701 58.0392 27.6586 58.0831 27.6586C58.1271 27.6587 58.1703 27.6703 58.2083 27.6924C58.2463 27.7144 58.2779 27.7461 58.2998 27.7843C58.3216 27.8224 58.333 27.8656 58.3329 27.9096V45.9759C58.3329 47.0521 59.1604 47.9759 60.2366 48.0296C60.507 48.0426 60.7773 48.0006 61.031 47.9061C61.2847 47.8116 61.5166 47.6666 61.7126 47.4798C61.9086 47.2931 62.0646 47.0685 62.1712 46.8196C62.2779 46.5708 62.3328 46.3028 62.3329 46.0321V24.0321C62.3327 23.9695 62.3294 23.9069 62.3229 23.8446V23.8446Z" fill="#FB923C"/>
</svg>
