<svg width="174" height="36" viewBox="0 0 174 36" fill="none" xmlns="http://www.w3.org/2000/svg">
<path d="M21.0001 11.5634L18.5001 11.5634C18.3031 11.5634 18.108 11.6023 17.926 11.6776C17.7441 11.753 17.5787 11.8635 17.4393 12.0027C17.3001 12.1421 17.1896 12.3075 17.1142 12.4894C17.0388 12.6714 17 12.8665 17 13.0635L17 18.5635C16.5 20.5631 16.4065 21.1569 15 22.5635C13.5935 23.97 12.4892 25.0634 10.5 25.0635C9.51511 25.0635 8.90995 24.9404 8 24.5635C7.09004 24.1866 6.19645 23.2599 5.5 22.5635C4.80356 21.867 4.87691 21.9734 4.5 21.0635C4.12309 20.1535 4.00003 19.5484 4.00004 18.5635L4.00004 13.0639C4.0001 12.8669 3.96134 12.6718 3.88599 12.4897C3.81063 12.3077 3.70015 12.1422 3.56086 12.003C3.42155 11.8636 3.25617 11.7531 3.07415 11.6776C2.89214 11.6023 2.69705 11.5634 2.50002 11.5634L-7.43095e-07 11.5634L-4.15255e-07 18.0636C-3.55061e-07 19.4424 0.271592 20.8078 0.799269 22.0817C1.32695 23.3556 2.10038 24.5132 3.07539 25.4882C4.05042 26.4632 5.20793 27.2366 6.48186 27.7642C7.75578 28.2919 9.12116 28.5635 10.5 28.5635C13.2848 28.5635 15.9555 27.4572 17.9247 25.4881C19.8938 23.519 21.0001 20.8483 21.0001 18.0636L21.0001 11.5634Z" fill="#EA580C"/>
<circle cx="4.5" cy="11.001" r="4.5" fill="white"/>
<path d="M33.0312 11.126V14.3135H23.1875V11.126H33.0312ZM25.625 6.9541H30.125V22.9385C30.125 23.4281 30.1875 23.8031 30.3125 24.0635C30.4479 24.3239 30.6458 24.5062 30.9062 24.6104C31.1667 24.7041 31.4948 24.751 31.8906 24.751C32.1719 24.751 32.4219 24.7406 32.6406 24.7197C32.8698 24.6885 33.0625 24.6572 33.2188 24.626L33.2344 27.9385C32.849 28.0635 32.4323 28.1624 31.9844 28.2354C31.5365 28.3083 31.0417 28.3447 30.5 28.3447C29.5104 28.3447 28.6458 28.1833 27.9062 27.8604C27.1771 27.527 26.6146 26.9958 26.2188 26.2666C25.8229 25.5374 25.625 24.5791 25.625 23.3916V6.9541ZM43.375 28.3447C42.0625 28.3447 40.8854 28.1364 39.8438 27.7197C38.8021 27.2926 37.9167 26.7041 37.1875 25.9541C36.4688 25.2041 35.9167 24.3343 35.5312 23.3447C35.1458 22.3447 34.9531 21.2822 34.9531 20.1572V19.5322C34.9531 18.251 35.1354 17.0791 35.5 16.0166C35.8646 14.9541 36.3854 14.0322 37.0625 13.251C37.75 12.4697 38.5833 11.8708 39.5625 11.4541C40.5417 11.027 41.6458 10.8135 42.875 10.8135C44.0729 10.8135 45.1354 11.0114 46.0625 11.4072C46.9896 11.8031 47.7656 12.3656 48.3906 13.0947C49.026 13.8239 49.5052 14.6989 49.8281 15.7197C50.151 16.7301 50.3125 17.8551 50.3125 19.0947V20.9697H36.875V17.9697H45.8906V17.626C45.8906 17.001 45.776 16.4437 45.5469 15.9541C45.3281 15.4541 44.9948 15.0583 44.5469 14.7666C44.099 14.4749 43.526 14.3291 42.8281 14.3291C42.2344 14.3291 41.724 14.4593 41.2969 14.7197C40.8698 14.9801 40.5208 15.3447 40.25 15.8135C39.9896 16.2822 39.7917 16.8343 39.6562 17.4697C39.5312 18.0947 39.4688 18.7822 39.4688 19.5322V20.1572C39.4688 20.8343 39.5625 21.4593 39.75 22.0322C39.9479 22.6051 40.224 23.0999 40.5781 23.5166C40.9427 23.9333 41.3802 24.2562 41.8906 24.4854C42.4115 24.7145 43 24.8291 43.6562 24.8291C44.4688 24.8291 45.224 24.6729 45.9219 24.3604C46.6302 24.0374 47.2396 23.5531 47.75 22.9072L49.9375 25.2822C49.5833 25.7926 49.099 26.2822 48.4844 26.751C47.8802 27.2197 47.151 27.6051 46.2969 27.9072C45.4427 28.1989 44.4688 28.3447 43.375 28.3447ZM62 24.2197V16.6885C62 16.1468 61.9115 15.6833 61.7344 15.2979C61.5573 14.902 61.2812 14.5947 60.9062 14.376C60.5417 14.1572 60.0677 14.0479 59.4844 14.0479C58.9844 14.0479 58.5521 14.1364 58.1875 14.3135C57.8229 14.4801 57.5417 14.7249 57.3438 15.0479C57.1458 15.3604 57.0469 15.7301 57.0469 16.1572H52.5469C52.5469 15.4385 52.7135 14.7562 53.0469 14.1104C53.3802 13.4645 53.8646 12.8968 54.5 12.4072C55.1354 11.9072 55.8906 11.5166 56.7656 11.2354C57.651 10.9541 58.6406 10.8135 59.7344 10.8135C61.0469 10.8135 62.2135 11.0322 63.2344 11.4697C64.2552 11.9072 65.0573 12.5635 65.6406 13.4385C66.2344 14.3135 66.5312 15.4072 66.5312 16.7197V23.9541C66.5312 24.8812 66.5885 25.6416 66.7031 26.2354C66.8177 26.8187 66.9844 27.3291 67.2031 27.7666V28.0322H62.6562C62.4375 27.5739 62.2708 27.001 62.1562 26.3135C62.0521 25.6156 62 24.9176 62 24.2197ZM62.5938 17.7354L62.625 20.2822H60.1094C59.5156 20.2822 59 20.3499 58.5625 20.4854C58.125 20.6208 57.7656 20.8135 57.4844 21.0635C57.2031 21.3031 56.9948 21.5843 56.8594 21.9072C56.7344 22.2301 56.6719 22.5843 56.6719 22.9697C56.6719 23.3551 56.7604 23.7041 56.9375 24.0166C57.1146 24.3187 57.3698 24.5583 57.7031 24.7354C58.0365 24.902 58.4271 24.9854 58.875 24.9854C59.5521 24.9854 60.1406 24.8499 60.6406 24.5791C61.1406 24.3083 61.526 23.9749 61.7969 23.5791C62.0781 23.1833 62.224 22.8083 62.2344 22.4541L63.4219 24.3604C63.2552 24.7874 63.026 25.2301 62.7344 25.6885C62.4531 26.1468 62.0938 26.5791 61.6562 26.9854C61.2188 27.3812 60.6927 27.7093 60.0781 27.9697C59.4635 28.2197 58.7344 28.3447 57.8906 28.3447C56.8177 28.3447 55.8438 28.1312 54.9688 27.7041C54.1042 27.2666 53.4167 26.6676 52.9062 25.9072C52.4062 25.1364 52.1562 24.2614 52.1562 23.2822C52.1562 22.3968 52.3229 21.6104 52.6562 20.9229C52.9896 20.2354 53.4792 19.6572 54.125 19.1885C54.7812 18.7093 55.599 18.3499 56.5781 18.1104C57.5573 17.8604 58.6927 17.7354 59.9844 17.7354H62.5938ZM76.9844 24.8291C77.5365 24.8291 78.026 24.7249 78.4531 24.5166C78.8802 24.2979 79.2135 23.9958 79.4531 23.6104C79.7031 23.2145 79.8333 22.751 79.8438 22.2197H84.0781C84.0677 23.4072 83.75 24.4645 83.125 25.3916C82.5 26.3083 81.6615 27.0322 80.6094 27.5635C79.5573 28.0843 78.3802 28.3447 77.0781 28.3447C75.7656 28.3447 74.6198 28.126 73.6406 27.6885C72.6719 27.251 71.8646 26.6468 71.2188 25.876C70.5729 25.0947 70.0885 24.1885 69.7656 23.1572C69.4427 22.1156 69.2812 21.001 69.2812 19.8135V19.3604C69.2812 18.1624 69.4427 17.0479 69.7656 16.0166C70.0885 14.9749 70.5729 14.0687 71.2188 13.2979C71.8646 12.5166 72.6719 11.9072 73.6406 11.4697C74.6094 11.0322 75.7448 10.8135 77.0469 10.8135C78.4323 10.8135 79.6458 11.0791 80.6875 11.6104C81.7396 12.1416 82.5625 12.902 83.1562 13.8916C83.7604 14.8708 84.0677 16.0322 84.0781 17.376H79.8438C79.8333 16.8135 79.7135 16.3031 79.4844 15.8447C79.2656 15.3864 78.9427 15.0218 78.5156 14.751C78.099 14.4697 77.5833 14.3291 76.9688 14.3291C76.3125 14.3291 75.776 14.4697 75.3594 14.751C74.9427 15.0218 74.6198 15.3968 74.3906 15.876C74.1615 16.3447 74 16.8812 73.9062 17.4854C73.8229 18.0791 73.7812 18.7041 73.7812 19.3604V19.8135C73.7812 20.4697 73.8229 21.0999 73.9062 21.7041C73.9896 22.3083 74.1458 22.8447 74.375 23.3135C74.6146 23.7822 74.9427 24.152 75.3594 24.4229C75.776 24.6937 76.3177 24.8291 76.9844 24.8291ZM91.0781 4.03223V28.0322H86.5781V4.03223H91.0781ZM90.4375 18.9854H89.2031C89.2135 17.8083 89.3698 16.7249 89.6719 15.7354C89.974 14.7354 90.4062 13.8708 90.9688 13.1416C91.5312 12.402 92.2031 11.8291 92.9844 11.4229C93.776 11.0166 94.651 10.8135 95.6094 10.8135C96.4427 10.8135 97.1979 10.9333 97.875 11.1729C98.5625 11.402 99.151 11.777 99.6406 12.2979C100.141 12.8083 100.526 13.4801 100.797 14.3135C101.068 15.1468 101.203 16.1572 101.203 17.3447V28.0322H96.6719V17.3135C96.6719 16.5635 96.5625 15.9749 96.3438 15.5479C96.1354 15.1104 95.8281 14.8031 95.4219 14.626C95.026 14.4385 94.5365 14.3447 93.9531 14.3447C93.3073 14.3447 92.7552 14.4645 92.2969 14.7041C91.849 14.9437 91.4896 15.277 91.2188 15.7041C90.9479 16.1208 90.75 16.6104 90.625 17.1729C90.5 17.7354 90.4375 18.3395 90.4375 18.9854Z" fill="white"/>
</svg>
