<svg width="14" height="15" viewBox="0 0 14 15" fill="none" xmlns="http://www.w3.org/2000/svg">
<path d="M10.586 6.43915L6.636 2.48915C6.45384 2.30054 6.35305 2.04794 6.35533 1.78574C6.3576 1.52355 6.46277 1.27273 6.64818 1.08733C6.83359 0.901919 7.0844 0.79675 7.3466 0.794471C7.6088 0.792193 7.8614 0.892987 8.05 1.07515L13.707 6.73215C13.8002 6.8248 13.8741 6.93496 13.9246 7.05629C13.9751 7.17763 14.001 7.30774 14.001 7.43915C14.001 7.57055 13.9751 7.70067 13.9246 7.822C13.8741 7.94333 13.8002 8.05349 13.707 8.14615L8.05 13.8031C7.95775 13.8987 7.84741 13.9748 7.7254 14.0272C7.6034 14.0797 7.47218 14.1072 7.3394 14.1084C7.20662 14.1095 7.07494 14.0842 6.95205 14.034C6.82915 13.9837 6.7175 13.9094 6.62361 13.8155C6.52971 13.7216 6.45546 13.61 6.40518 13.4871C6.3549 13.3642 6.3296 13.2325 6.33075 13.0997C6.3319 12.967 6.35949 12.8357 6.4119 12.7137C6.46431 12.5917 6.54049 12.4814 6.636 12.3891L10.586 8.43915H1C0.734784 8.43915 0.48043 8.33379 0.292893 8.14625C0.105357 7.95872 0 7.70436 0 7.43915C0 7.17393 0.105357 6.91957 0.292893 6.73204C0.48043 6.5445 0.734784 6.43915 1 6.43915H10.586V6.43915Z" fill="#2563EB"/>
</svg>
