<svg width="140" height="582" viewBox="0 0 140 582" fill="none" xmlns="http://www.w3.org/2000/svg">
<path d="M128.024 149.278L131.624 147.385L130.937 151.395L133.851 154.235L129.825 154.82L128.024 158.468L126.223 154.82L122.197 154.235L125.11 151.395L124.422 147.385L128.024 149.278Z" fill="#FB923C"/>
<g clip-path="url(#clip0_4713_6806)">
<path d="M133.523 384.575L136.353 383.088L135.812 386.239L138.102 388.47L134.939 388.93L133.523 391.796L132.108 388.93L128.945 388.47L131.234 386.239L130.694 383.088L133.523 384.575Z" fill="#FB923C"/>
</g>
<g clip-path="url(#clip1_4713_6806)">
<path d="M104.489 206.564C106.1 206.564 107.406 207.87 107.406 209.481C107.406 211.092 106.1 212.397 104.489 212.397C102.878 212.397 101.572 211.092 101.572 209.481C101.572 207.87 102.878 206.564 104.489 206.564Z" fill="#FB923C"/>
</g>
<g clip-path="url(#clip2_4713_6806)">
<path d="M105.972 93.644C107.813 93.644 109.305 95.1363 109.305 96.9773C109.305 98.8183 107.813 100.311 105.972 100.311C104.131 100.311 102.639 98.8183 102.639 96.9773C102.639 95.1363 104.131 93.644 105.972 93.644Z" fill="#FB923C"/>
</g>
<g clip-path="url(#clip3_4713_6806)">
<path d="M41.0233 73.8052C43.3245 73.8052 45.1899 75.6706 45.1899 77.9719C45.1899 80.2731 43.3245 82.1385 41.0233 82.1385C38.722 82.1385 36.8566 80.2731 36.8566 77.9719C36.8566 75.6706 38.722 73.8052 41.0233 73.8052Z" fill="#FB923C"/>
</g>
<g clip-path="url(#clip4_4713_6806)">
<path d="M73.9754 167.805C76.2767 167.805 78.1421 169.671 78.1421 171.972C78.1421 174.273 76.2767 176.139 73.9754 176.139C71.6742 176.139 69.8088 174.273 69.8088 171.972C69.8088 169.671 71.6742 167.805 73.9754 167.805Z" fill="#FB923C"/>
</g>
<g clip-path="url(#clip5_4713_6806)">
<path d="M123.524 514.886C126.055 514.886 128.107 516.938 128.107 519.469C128.107 522.001 126.055 524.053 123.524 524.053C120.992 524.053 118.94 522.001 118.94 519.469C118.94 516.938 120.992 514.886 123.524 514.886Z" fill="#FB923C"/>
</g>
<g clip-path="url(#clip6_4713_6806)">
<path d="M123.023 289.322C123.944 289.322 124.69 290.068 124.69 290.988C124.69 291.909 123.944 292.655 123.023 292.655C122.103 292.655 121.357 291.909 121.357 290.988C121.357 290.068 122.103 289.322 123.023 289.322Z" fill="#FB923C"/>
</g>
<g clip-path="url(#clip7_4713_6806)">
<path d="M3.49886 252.564C5.10974 252.564 6.41553 253.87 6.41553 255.481C6.41553 257.092 5.10974 258.397 3.49886 258.397C1.88799 258.397 0.582194 257.092 0.582194 255.481C0.582194 253.87 1.88799 252.564 3.49886 252.564Z" fill="#FB923C"/>
</g>
<g clip-path="url(#clip8_4713_6806)">
<path d="M8.97754 485.483C10.3583 485.483 11.4775 486.602 11.4775 487.983C11.4775 489.364 10.3583 490.483 8.97754 490.483C7.59679 490.483 6.47754 489.364 6.47754 487.983C6.47754 486.602 7.59679 485.483 8.97754 485.483Z" fill="#FB923C"/>
</g>
<path d="M88.6484 419.874V422.999C88.6484 423.165 88.7143 423.324 88.8315 423.441C88.9487 423.558 89.1077 423.624 89.2734 423.624C89.4392 423.624 89.5982 423.558 89.7154 423.441C89.8326 423.324 89.8984 423.165 89.8984 422.999V419.874H93.0234C93.1892 419.874 93.3482 419.808 93.4654 419.691C93.5826 419.574 93.6484 419.415 93.6484 419.249C93.6484 419.083 93.5826 418.924 93.4654 418.807C93.3482 418.69 93.1892 418.624 93.0234 418.624H89.8984V415.499C89.8984 415.333 89.8326 415.174 89.7154 415.057C89.5982 414.94 89.4392 414.874 89.2734 414.874C89.1077 414.874 88.9487 414.94 88.8315 415.057C88.7143 415.174 88.6484 415.333 88.6484 415.499V418.624H85.5234C85.3577 418.624 85.1987 418.69 85.0815 418.807C84.9643 418.924 84.8984 419.083 84.8984 419.249C84.8984 419.415 84.9643 419.574 85.0815 419.691C85.1987 419.808 85.3577 419.874 85.5234 419.874H88.6484Z" fill="#FB923C"/>
<path d="M105.557 348.199V349.866C105.557 349.954 105.592 350.039 105.655 350.101C105.717 350.164 105.802 350.199 105.89 350.199C105.979 350.199 106.063 350.164 106.126 350.101C106.189 350.039 106.224 349.954 106.224 349.866V348.199H107.89C107.979 348.199 108.063 348.164 108.126 348.101C108.189 348.039 108.224 347.954 108.224 347.866C108.224 347.777 108.189 347.692 108.126 347.63C108.063 347.567 107.979 347.532 107.89 347.532H106.224V345.866C106.224 345.777 106.189 345.692 106.126 345.63C106.063 345.567 105.979 345.532 105.89 345.532C105.802 345.532 105.717 345.567 105.655 345.63C105.592 345.692 105.557 345.777 105.557 345.866V347.532H103.89C103.802 347.532 103.717 347.567 103.655 347.63C103.592 347.692 103.557 347.777 103.557 347.866C103.557 347.954 103.592 348.039 103.655 348.101C103.717 348.164 103.802 348.199 103.89 348.199H105.557Z" fill="#FB923C"/>
<g clip-path="url(#clip9_4713_6806)">
<path d="M49.0234 312.483C50.4042 312.483 51.5234 313.602 51.5234 314.983C51.5234 316.364 50.4042 317.483 49.0234 317.483C47.6427 317.483 46.5234 316.364 46.5234 314.983C46.5234 313.602 47.6427 312.483 49.0234 312.483Z" fill="#FB923C"/>
</g>
<path d="M89.3232 41.2991V43.7991C89.3232 43.9317 89.3759 44.0589 89.4697 44.1526C89.5635 44.2464 89.6906 44.2991 89.8232 44.2991C89.9559 44.2991 90.083 44.2464 90.1768 44.1526C90.2706 44.0589 90.3232 43.9317 90.3232 43.7991V41.2991H92.8232C92.9559 41.2991 93.083 41.2464 93.1768 41.1526C93.2706 41.0589 93.3232 40.9317 93.3232 40.7991C93.3232 40.6665 93.2706 40.5393 93.1768 40.4455C93.083 40.3518 92.9559 40.2991 92.8232 40.2991H90.3232V37.7991C90.3232 37.6665 90.2706 37.5393 90.1768 37.4455C90.083 37.3518 89.9559 37.2991 89.8232 37.2991C89.6906 37.2991 89.5635 37.3518 89.4697 37.4455C89.3759 37.5393 89.3232 37.6665 89.3232 37.7991V40.2991H86.8232C86.6906 40.2991 86.5635 40.3518 86.4697 40.4455C86.3759 40.5393 86.3232 40.6665 86.3232 40.7991C86.3232 40.9317 86.3759 41.0589 86.4697 41.1526C86.5635 41.2464 86.6906 41.2991 86.8232 41.2991H89.3232Z" fill="#FB923C"/>
<path d="M3.24973 164.52L2.51327 165.257C2.49337 165.276 2.4775 165.299 2.46658 165.324C2.45566 165.35 2.44991 165.377 2.44967 165.405C2.44943 165.432 2.4547 165.46 2.46518 165.485C2.47565 165.511 2.49112 165.534 2.51068 165.554C2.53025 165.573 2.55351 165.589 2.57911 165.599C2.60471 165.61 2.63215 165.615 2.65981 165.615C2.68747 165.614 2.71481 165.609 2.74023 165.598C2.76564 165.587 2.78863 165.571 2.80785 165.551L3.54452 164.815L4.28098 165.551C4.30019 165.571 4.32318 165.587 4.3486 165.598C4.37402 165.609 4.40135 165.614 4.42902 165.615C4.45668 165.615 4.48411 165.61 4.50972 165.599C4.53532 165.589 4.55858 165.573 4.57814 165.554C4.5977 165.534 4.61317 165.511 4.62365 165.485C4.63412 165.46 4.63939 165.432 4.63915 165.405C4.63891 165.377 4.63316 165.35 4.62225 165.324C4.61133 165.299 4.59546 165.276 4.57556 165.257L3.8391 164.52L4.57556 163.783C4.59546 163.764 4.61133 163.741 4.62225 163.716C4.63316 163.69 4.63891 163.663 4.63915 163.635C4.63939 163.608 4.63412 163.58 4.62365 163.555C4.61317 163.529 4.5977 163.506 4.57814 163.486C4.55858 163.467 4.53532 163.451 4.50972 163.441C4.48411 163.43 4.45668 163.425 4.42902 163.425C4.40135 163.425 4.37402 163.431 4.3486 163.442C4.32318 163.453 4.30019 163.469 4.28098 163.489L3.54452 164.225L2.80785 163.489C2.78863 163.469 2.76564 163.453 2.74023 163.442C2.71481 163.431 2.68747 163.425 2.65981 163.425C2.63215 163.425 2.60471 163.43 2.57911 163.441C2.55351 163.451 2.53025 163.467 2.51068 163.486C2.49112 163.506 2.47565 163.529 2.46518 163.555C2.4547 163.58 2.44943 163.608 2.44967 163.635C2.44991 163.663 2.45566 163.69 2.46658 163.716C2.4775 163.741 2.49337 163.764 2.51327 163.783L3.24973 164.52V164.52Z" fill="#FB923C"/>
<path d="M101.702 574.562L99.4929 576.772C99.4332 576.829 99.3856 576.898 99.3529 576.974C99.3201 577.051 99.3029 577.133 99.3021 577.216C99.3014 577.299 99.3172 577.381 99.3487 577.458C99.3801 577.535 99.4265 577.604 99.4852 577.663C99.5439 577.722 99.6136 577.768 99.6905 577.8C99.7673 577.831 99.8496 577.847 99.9326 577.846C100.016 577.845 100.098 577.828 100.174 577.795C100.25 577.763 100.319 577.715 100.377 577.655L102.587 575.446L104.796 577.655C104.854 577.715 104.923 577.763 104.999 577.795C105.075 577.828 105.157 577.845 105.24 577.846C105.323 577.847 105.405 577.831 105.482 577.8C105.559 577.768 105.629 577.722 105.688 577.663C105.746 577.604 105.793 577.535 105.824 577.458C105.855 577.381 105.871 577.299 105.871 577.216C105.87 577.133 105.853 577.051 105.82 576.974C105.787 576.898 105.739 576.829 105.68 576.772L103.47 574.562L105.68 572.352C105.739 572.294 105.787 572.226 105.82 572.149C105.853 572.073 105.87 571.991 105.871 571.908C105.871 571.825 105.855 571.743 105.824 571.666C105.793 571.589 105.746 571.519 105.688 571.461C105.629 571.402 105.559 571.356 105.482 571.324C105.405 571.293 105.323 571.277 105.24 571.278C105.157 571.278 105.075 571.296 104.999 571.328C104.923 571.361 104.854 571.409 104.796 571.468L102.587 573.678L100.377 571.468C100.319 571.409 100.25 571.361 100.174 571.328C100.098 571.296 100.016 571.278 99.9326 571.278C99.8496 571.277 99.7673 571.293 99.6905 571.324C99.6136 571.356 99.5439 571.402 99.4852 571.461C99.4265 571.519 99.3801 571.589 99.3487 571.666C99.3172 571.743 99.3014 571.825 99.3021 571.908C99.3029 571.991 99.3201 572.073 99.3529 572.149C99.3856 572.226 99.4332 572.294 99.4929 572.352L101.702 574.562V574.562Z" fill="#FB923C"/>
<path d="M9.28711 6.29968V8.79968C9.28711 8.93229 9.33979 9.05947 9.43356 9.15324C9.52732 9.247 9.6545 9.29968 9.78711 9.29968C9.91972 9.29968 10.0469 9.247 10.1407 9.15324C10.2344 9.05947 10.2871 8.93229 10.2871 8.79968V6.29968H12.7871C12.9197 6.29968 13.0469 6.247 13.1407 6.15324C13.2344 6.05947 13.2871 5.93229 13.2871 5.79968C13.2871 5.66707 13.2344 5.5399 13.1407 5.44613C13.0469 5.35236 12.9197 5.29968 12.7871 5.29968H10.2871V2.79968C10.2871 2.66707 10.2344 2.5399 10.1407 2.44613C10.0469 2.35236 9.91972 2.29968 9.78711 2.29968C9.6545 2.29968 9.52732 2.35236 9.43356 2.44613C9.33979 2.5399 9.28711 2.66707 9.28711 2.79968V5.29968H6.78711C6.6545 5.29968 6.52732 5.35236 6.43356 5.44613C6.33979 5.5399 6.28711 5.66707 6.28711 5.79968C6.28711 5.93229 6.33979 6.05947 6.43356 6.15324C6.52732 6.247 6.6545 6.29968 6.78711 6.29968H9.28711Z" fill="#FB923C"/>
<path d="M76.4401 520.249V522.332C76.4401 522.443 76.484 522.549 76.5621 522.627C76.6403 522.705 76.7463 522.749 76.8568 522.749C76.9673 522.749 77.0733 522.705 77.1514 522.627C77.2295 522.549 77.2734 522.443 77.2734 522.332V520.249H79.3568C79.4673 520.249 79.5733 520.205 79.6514 520.127C79.7295 520.049 79.7734 519.943 79.7734 519.832C79.7734 519.722 79.7295 519.616 79.6514 519.538C79.5733 519.46 79.4673 519.416 79.3568 519.416H77.2734V517.332C77.2734 517.222 77.2295 517.116 77.1514 517.038C77.0733 516.96 76.9673 516.916 76.8568 516.916C76.7463 516.916 76.6403 516.96 76.5621 517.038C76.484 517.116 76.4401 517.222 76.4401 517.332V519.416H74.3568C74.2463 519.416 74.1403 519.46 74.0621 519.538C73.984 519.616 73.9401 519.722 73.9401 519.832C73.9401 519.943 73.984 520.049 74.0621 520.127C74.1403 520.205 74.2463 520.249 74.3568 520.249H76.4401Z" fill="#FB923C"/>
<path d="M26.5855 191.032L25.4072 192.211C25.3753 192.242 25.3499 192.279 25.3325 192.319C25.315 192.36 25.3058 192.404 25.3054 192.448C25.305 192.492 25.3135 192.536 25.3302 192.577C25.347 192.618 25.3717 192.655 25.403 192.687C25.4343 192.718 25.4715 192.743 25.5125 192.759C25.5535 192.776 25.5974 192.785 25.6416 192.784C25.6859 192.784 25.7296 192.775 25.7703 192.757C25.811 192.74 25.8477 192.714 25.8785 192.682L27.0572 191.504L28.2355 192.682C28.2662 192.714 28.303 192.74 28.3437 192.757C28.3844 192.775 28.4281 192.784 28.4724 192.784C28.5166 192.785 28.5605 192.776 28.6015 192.759C28.6424 192.743 28.6797 192.718 28.711 192.687C28.7423 192.655 28.767 192.618 28.7838 192.577C28.8005 192.536 28.809 192.492 28.8086 192.448C28.8082 192.404 28.799 192.36 28.7815 192.319C28.7641 192.279 28.7387 192.242 28.7068 192.211L27.5285 191.033L28.7068 189.854C28.7387 189.823 28.7641 189.787 28.7815 189.746C28.799 189.705 28.8082 189.661 28.8086 189.617C28.809 189.573 28.8005 189.529 28.7838 189.488C28.767 189.447 28.7423 189.41 28.711 189.379C28.6797 189.347 28.6424 189.323 28.6015 189.306C28.5605 189.289 28.5166 189.281 28.4724 189.281C28.4281 189.281 28.3844 189.291 28.3437 189.308C28.303 189.326 28.2662 189.351 28.2355 189.383L27.0572 190.561L25.8785 189.383C25.8477 189.351 25.811 189.326 25.7703 189.308C25.7296 189.291 25.6859 189.281 25.6416 189.281C25.5974 189.281 25.5535 189.289 25.5125 189.306C25.4715 189.323 25.4343 189.347 25.403 189.379C25.3717 189.41 25.347 189.447 25.3302 189.488C25.3135 189.529 25.305 189.573 25.3054 189.617C25.3058 189.661 25.315 189.705 25.3325 189.746C25.3499 189.787 25.3753 189.823 25.4072 189.854L26.5855 191.033V191.032Z" fill="#FB923C"/>
<defs>
<clipPath id="clip0_4713_6806">
<rect width="11" height="11" fill="white" transform="matrix(-1 0 0 -1 139.023 392.999)"/>
</clipPath>
<clipPath id="clip1_4713_6806">
<rect width="7" height="7" fill="white" transform="matrix(-1 0 0 -1 107.989 213)"/>
</clipPath>
<clipPath id="clip2_4713_6806">
<rect width="8" height="8" fill="white" transform="matrix(-1 0 0 -1 109.972 100.999)"/>
</clipPath>
<clipPath id="clip3_4713_6806">
<rect width="10" height="10" fill="white" transform="matrix(-1 0 0 -1 46.0234 82.999)"/>
</clipPath>
<clipPath id="clip4_4713_6806">
<rect width="10" height="10" fill="white" transform="matrix(-1 0 0 -1 78.9756 176.999)"/>
</clipPath>
<clipPath id="clip5_4713_6806">
<rect width="11" height="11" fill="white" transform="matrix(-1 0 0 -1 129.023 524.999)"/>
</clipPath>
<clipPath id="clip6_4713_6806">
<rect width="4" height="4" fill="white" transform="matrix(-1 0 0 -1 125.023 292.999)"/>
</clipPath>
<clipPath id="clip7_4713_6806">
<rect width="7" height="7" fill="white" transform="matrix(-1 0 0 -1 6.99902 259)"/>
</clipPath>
<clipPath id="clip8_4713_6806">
<rect width="6" height="6" fill="white" transform="matrix(-1 0 0 -1 11.9775 490.999)"/>
</clipPath>
<clipPath id="clip9_4713_6806">
<rect width="6" height="6" fill="white" transform="matrix(-1 0 0 -1 52.0234 317.999)"/>
</clipPath>
</defs>
</svg>
